<svg width="277" height="321" viewBox="0 0 277 321" fill="none" xmlns="http://www.w3.org/2000/svg">
<path d="M137.922 273.13C110.752 273.13 84.423 263.709 63.4203 246.472C42.4176 229.234 28.0412 205.247 22.7406 178.598C17.4401 151.949 21.5433 124.286 34.3512 100.323C47.1592 76.3596 67.8793 57.5791 92.9811 47.1811C118.083 36.7831 146.013 35.4109 172.014 43.2984C198.014 51.1859 220.475 67.845 235.57 90.4372C250.664 113.029 257.459 140.157 254.796 167.197C252.133 194.238 240.177 219.519 220.964 238.732C210.085 249.672 197.143 258.345 182.889 264.249C168.635 270.154 153.351 273.173 137.922 273.13ZM137.922 39.1438C73.6645 39.1438 21.3866 91.4243 21.3866 155.686C21.3866 219.947 73.6645 272.227 137.922 272.227C202.18 272.227 254.458 219.947 254.458 155.686C254.458 91.4243 202.18 39.1438 137.922 39.1438Z" fill="#FFD34D"/>
<path d="M181.529 290.743V172.424H93.4712L93.4712 290.743H181.529Z" fill="black"/>
<path d="M196.657 168.811H78.3435V215.778H196.657V168.811Z" fill="#303234"/>
<path d="M196.657 221.197H78.3435V268.163H196.657V221.197Z" fill="#303234"/>
<path d="M196.657 273.582H78.3435V320.549H196.657V273.582Z" fill="#303234"/>
<path d="M196.657 188.725H78.3435V195.951H196.657V188.725Z" fill="#FFD34D"/>
<path d="M196.657 241.111H78.3435V248.336H196.657V241.111Z" fill="#FFD34D"/>
<path d="M196.657 293.496H78.3435V300.722H196.657V293.496Z" fill="#FFD34D"/>
<path d="M173.626 178.295C175.122 178.295 176.336 177.082 176.336 175.585C176.336 174.089 175.122 172.875 173.626 172.875C172.13 172.875 170.917 174.089 170.917 175.585C170.917 177.082 172.13 178.295 173.626 178.295Z" fill="#FFD34D"/>
<path d="M183.109 178.295C184.606 178.295 185.819 177.082 185.819 175.585C185.819 174.089 184.606 172.875 183.109 172.875C181.613 172.875 180.4 174.089 180.4 175.585C180.4 177.082 181.613 178.295 183.109 178.295Z" fill="#FFD34D"/>
<path d="M192.592 178.295C194.089 178.295 195.302 177.082 195.302 175.585C195.302 174.089 194.089 172.875 192.592 172.875C191.096 172.875 189.883 174.089 189.883 175.585C189.883 177.082 191.096 178.295 192.592 178.295Z" fill="#FFD34D"/>
<path d="M173.626 229.777C175.122 229.777 176.336 228.564 176.336 227.068C176.336 225.571 175.122 224.358 173.626 224.358C172.13 224.358 170.917 225.571 170.917 227.068C170.917 228.564 172.13 229.777 173.626 229.777Z" fill="#FFD34D"/>
<path d="M183.109 229.777C184.606 229.777 185.819 228.564 185.819 227.068C185.819 225.571 184.606 224.358 183.109 224.358C181.613 224.358 180.4 225.571 180.4 227.068C180.4 228.564 181.613 229.777 183.109 229.777Z" fill="#FFD34D"/>
<path d="M192.592 229.777C194.089 229.777 195.302 228.564 195.302 227.068C195.302 225.571 194.089 224.358 192.592 224.358C191.096 224.358 189.883 225.571 189.883 227.068C189.883 228.564 191.096 229.777 192.592 229.777Z" fill="#FFD34D"/>
<path d="M173.626 281.26C175.122 281.26 176.336 280.046 176.336 278.55C176.336 277.053 175.122 275.84 173.626 275.84C172.13 275.84 170.917 277.053 170.917 278.55C170.917 280.046 172.13 281.26 173.626 281.26Z" fill="#FFD34D"/>
<path d="M183.109 281.26C184.606 281.26 185.819 280.046 185.819 278.55C185.819 277.053 184.606 275.84 183.109 275.84C181.613 275.84 180.4 277.053 180.4 278.55C180.4 280.046 181.613 281.26 183.109 281.26Z" fill="#FFD34D"/>
<path d="M192.592 281.26C194.089 281.26 195.302 280.046 195.302 278.55C195.302 277.053 194.089 275.84 192.592 275.84C191.096 275.84 189.883 277.053 189.883 278.55C189.883 280.046 191.096 281.26 192.592 281.26Z" fill="#FFD34D"/>
<path d="M46.2267 122.413V206.406C46.2264 208.164 45.5282 209.849 44.2858 211.091C43.0433 212.334 41.3582 213.032 39.6011 213.032H6.96186C5.2043 213.033 3.51862 212.335 2.27558 211.092C1.03254 209.85 0.333944 208.164 0.333435 206.406V122.413C0.333946 120.655 1.03254 118.969 2.27558 117.727C3.51862 116.484 5.2043 115.786 6.96186 115.787H10.9212C10.7268 116.265 10.6528 116.783 10.7057 117.297C10.7587 117.81 10.9369 118.303 11.2248 118.731C11.5126 119.16 11.9013 119.511 12.3567 119.754C12.812 119.997 13.3201 120.124 13.8362 120.125H32.4449C32.9611 120.124 33.4691 119.997 33.9245 119.754C34.3798 119.511 34.7685 119.16 35.0564 118.731C35.3442 118.303 35.5224 117.81 35.5754 117.297C35.6283 116.783 35.5543 116.265 35.3599 115.787H39.6011C41.3582 115.787 43.0433 116.485 44.2858 117.728C45.5282 118.97 46.2264 120.655 46.2267 122.413Z" fill="black"/>
<path d="M44.0526 131.826H2.50757V189.631H44.0526V131.826Z" fill="#40464C"/>
<path d="M30.8852 171.575H14.3034V172.523H30.8852V171.575Z" fill="#E6E6E6"/>
<path d="M39.9441 175.054H14.2867V176.002H39.9441V175.054Z" fill="#FFD34D"/>
<path d="M34.4218 178.332H14.2867V179.28H34.4218V178.332Z" fill="#E6E6E6"/>
<path d="M26.1309 181.61H14.2867V182.558H26.1309V181.61Z" fill="#E6E6E6"/>
<path d="M32.053 184.888H14.2867V185.836H32.053V184.888Z" fill="#E6E6E6"/>
<path d="M8.67863 171.302H6.78357V173.197H8.67863V171.302Z" fill="#E6E6E6"/>
<path d="M8.67863 174.58H6.78357V176.475H8.67863V174.58Z" fill="#FFD34D"/>
<path d="M8.67863 177.858H6.78357V179.754H8.67863V177.858Z" fill="#E6E6E6"/>
<path d="M8.67863 181.136H6.78357V183.031H8.67863V181.136Z" fill="#E6E6E6"/>
<path d="M8.67863 184.414H6.78357V186.309H8.67863V184.414Z" fill="#E6E6E6"/>
<path d="M31.7175 139.052H15.0103V155.76H31.7175V139.052Z" fill="#FFD34D"/>
<path d="M193.041 0.0629883H82.006V71.1786H193.041V0.0629883Z" fill="black"/>
<path d="M182.435 19.9585H90.3765V54.7475H182.435V19.9585Z" fill="#40464C"/>
<path d="M129.243 25.9858H107.149V27.2484H129.243V25.9858Z" fill="#E6E6E6"/>
<path d="M141.314 30.6218H107.127V31.8844H141.314V30.6218Z" fill="#FFD34D"/>
<path d="M133.956 34.9895H107.127V36.2521H133.956V34.9895Z" fill="#E6E6E6"/>
<path d="M122.909 39.3572H107.127V40.6198H122.909V39.3572Z" fill="#E6E6E6"/>
<path d="M130.799 43.7249H107.127V44.9874H130.799V43.7249Z" fill="#E6E6E6"/>
<path d="M99.6546 25.6228H97.1296V28.148H99.6546V25.6228Z" fill="#E6E6E6"/>
<path d="M99.6546 29.9905H97.1296V32.5157H99.6546V29.9905Z" fill="#FFD34D"/>
<path d="M99.6546 34.3582H97.1296V36.8833H99.6546V34.3582Z" fill="#E6E6E6"/>
<path d="M99.6546 38.7258H97.1296V41.251H99.6546V38.7258Z" fill="#E6E6E6"/>
<path d="M99.6546 43.0935H97.1296V45.6187H99.6546V43.0935Z" fill="#E6E6E6"/>
<path d="M177.918 24.3174H155.312V46.9239H177.918V24.3174Z" fill="#FFD34D"/>
<path d="M192.994 0H81.9586V4.71742H192.994V0Z" fill="#FFD34D"/>
<path d="M85.464 3.35872C85.987 3.35872 86.4109 2.93477 86.4109 2.41178C86.4109 1.8888 85.987 1.46484 85.464 1.46484C84.9411 1.46484 84.5172 1.8888 84.5172 2.41178C84.5172 2.93477 84.9411 3.35872 85.464 3.35872Z" fill="white"/>
<path d="M88.7826 3.35872C89.3056 3.35872 89.7295 2.93477 89.7295 2.41178C89.7295 1.8888 89.3056 1.46484 88.7826 1.46484C88.2597 1.46484 87.8358 1.8888 87.8358 2.41178C87.8358 2.93477 88.2597 3.35872 88.7826 3.35872Z" fill="white"/>
<path d="M92.1012 3.35872C92.6242 3.35872 93.0481 2.93477 93.0481 2.41178C93.0481 1.8888 92.6242 1.46484 92.1012 1.46484C91.5783 1.46484 91.1544 1.8888 91.1544 2.41178C91.1544 2.93477 91.5783 3.35872 92.1012 3.35872Z" fill="white"/>
<path d="M267.395 133.135H240.3V147.134H267.395V133.135Z" fill="#151515"/>
<path d="M267.395 183.262H240.3V197.262H267.395V183.262Z" fill="#151515"/>
<path d="M253.848 187.778C266.318 187.778 276.426 177.669 276.426 165.198C276.426 152.728 266.318 142.618 253.848 142.618C241.378 142.618 231.269 152.728 231.269 165.198C231.269 177.669 241.378 187.778 253.848 187.778Z" fill="black"/>
<path d="M253.848 182.811C263.574 182.811 271.459 174.925 271.459 165.198C271.459 155.471 263.574 147.586 253.848 147.586C244.121 147.586 236.236 155.471 236.236 165.198C236.236 174.925 244.121 182.811 253.848 182.811Z" fill="#40464C"/>
<path d="M261.739 160.373H248.081V161.153H261.739V160.373Z" fill="#E2E2E2"/>
<path d="M269.201 163.239H248.067V164.019H269.201V163.239Z" fill="#FFD34D"/>
<path d="M264.652 165.939H248.067V166.719H264.652V165.939Z" fill="#E2E2E2"/>
<path d="M257.823 168.639H248.067V169.419H257.823V168.639Z" fill="#E2E2E2"/>
<path d="M262.701 171.339H248.067V172.12H262.701V171.339Z" fill="#E2E2E2"/>
<path d="M243.447 160.148H241.886V161.709H243.447V160.148Z" fill="#E2E2E2"/>
<path d="M243.447 162.848H241.886V164.409H243.447V162.848Z" fill="#FFD34D"/>
<path d="M243.447 165.549H241.886V167.11H243.447V165.549Z" fill="#E2E2E2"/>
<path d="M243.447 168.249H241.886V169.81H243.447V168.249Z" fill="#E2E2E2"/>
<path d="M243.447 170.949H241.886V172.51H243.447V170.949Z" fill="#E2E2E2"/>
</svg>
