<svg width="290" height="225" viewBox="0 0 290 225" fill="none" xmlns="http://www.w3.org/2000/svg">
<path d="M4.66874 152.862C5.78 149.667 5.63939 146.174 4.27494 143.078C4.1395 142.771 4.62527 142.578 4.76055 142.885C6.17437 146.109 6.31326 149.745 5.14951 153.067C5.03837 153.383 4.5582 153.177 4.66874 152.862Z" fill="white"/>
<path d="M289.135 7.72314H214.672V12.4857C214.671 12.7296 214.755 12.9663 214.911 13.1551C214.76 16.8776 214.672 21.6299 214.672 26.7941V154.122C214.672 166.057 215.154 175.768 215.744 175.768H288.063C288.653 175.768 289.135 166.057 289.135 154.122V26.7941C289.135 21.6299 289.047 16.8776 288.897 13.1551C289.052 12.9662 289.136 12.7296 289.135 12.4857L289.135 7.72314Z" fill="#40464C"/>
<path d="M288.063 176.283H215.744C215.181 176.283 214.808 176.283 214.469 169.446C214.266 165.343 214.154 159.901 214.154 154.122V26.7941C214.154 21.803 214.239 16.9519 214.393 13.1344C214.489 10.8423 214.6 9.00632 214.721 7.67665C214.959 5.07361 215.185 4.63391 215.744 4.63391H288.063C288.622 4.63391 288.848 5.07361 289.086 7.67665C289.208 9.01134 289.318 10.8473 289.414 13.1334L289.414 13.1344C289.568 16.9479 289.653 21.799 289.653 26.7941V154.122C289.653 159.901 289.541 165.343 289.337 169.446C288.999 176.283 288.626 176.283 288.063 176.283ZM216.038 175.253H287.769C288.143 173.846 288.617 166.206 288.617 154.122V26.7941C288.617 21.8125 288.532 16.9766 288.379 13.1766H288.379C288.284 10.9069 288.174 9.08777 288.055 7.76967C288.008 7.06166 287.911 6.35786 287.764 5.66366H216.043C215.896 6.35787 215.799 7.06167 215.752 7.76967C215.633 9.08274 215.524 10.9019 215.428 13.1766C215.274 16.9798 215.19 21.8163 215.19 26.7941V154.122C215.19 166.206 215.663 173.846 216.038 175.253Z" fill="black"/>
<path d="M288.063 5.14868H215.744C215.46 5.14923 215.188 5.26168 214.987 5.46144C214.786 5.66119 214.673 5.93196 214.672 6.21447V12.4856C214.671 12.7295 214.755 12.9662 214.911 13.155C215.011 13.2784 215.138 13.3781 215.282 13.4466C215.427 13.5152 215.584 13.551 215.744 13.5514H288.063C288.223 13.551 288.38 13.5152 288.525 13.4466C288.669 13.378 288.796 13.2784 288.897 13.155C289.052 12.9661 289.136 12.7295 289.135 12.4856V6.21447C289.134 5.93199 289.021 5.66122 288.82 5.46146C288.619 5.2617 288.347 5.14923 288.063 5.14868Z" fill="#060606"/>
<path d="M220.897 10.5576C221.737 10.5576 222.419 9.87995 222.419 9.04405C222.419 8.20815 221.737 7.53052 220.897 7.53052C220.056 7.53052 219.374 8.20815 219.374 9.04405C219.374 9.87995 220.056 10.5576 220.897 10.5576Z" fill="white"/>
<path d="M226.675 10.5576C227.516 10.5576 228.197 9.87995 228.197 9.04405C228.197 8.20815 227.516 7.53052 226.675 7.53052C225.834 7.53052 225.152 8.20815 225.152 9.04405C225.152 9.87995 225.834 10.5576 226.675 10.5576Z" fill="white"/>
<path d="M232.453 10.5576C233.294 10.5576 233.975 9.87995 233.975 9.04405C233.975 8.20815 233.294 7.53052 232.453 7.53052C231.612 7.53052 230.931 8.20815 230.931 9.04405C230.931 9.87995 231.612 10.5576 232.453 10.5576Z" fill="white"/>
<path d="M282.403 7.02283H275.748C275.618 7.02369 275.493 7.07551 275.401 7.16705C275.309 7.2586 275.257 7.38251 275.256 7.51196C275.254 7.58566 275.272 7.65856 275.308 7.72306C275.348 7.80597 275.41 7.87609 275.488 7.9253C275.566 7.9745 275.656 8.00078 275.748 8.00109H282.403C282.496 8.00155 282.587 7.97564 282.666 7.92641C282.745 7.87718 282.808 7.80665 282.848 7.72306C282.88 7.65723 282.896 7.58496 282.895 7.51196C282.895 7.44771 282.882 7.38408 282.857 7.32472C282.832 7.26535 282.796 7.21141 282.751 7.16599C282.705 7.12056 282.651 7.08454 282.591 7.05997C282.531 7.03541 282.467 7.02278 282.403 7.02283Z" fill="white"/>
<path d="M282.403 8.86096H275.748C275.618 8.86096 275.492 8.91249 275.4 9.00422C275.308 9.09595 275.256 9.22037 275.256 9.35009C275.256 9.47982 275.308 9.60423 275.4 9.69596C275.492 9.78769 275.618 9.83922 275.748 9.83922H282.403C282.533 9.83922 282.658 9.78769 282.75 9.69596C282.843 9.60423 282.895 9.47982 282.895 9.35009C282.895 9.22037 282.843 9.09595 282.75 9.00422C282.658 8.91249 282.533 8.86096 282.403 8.86096Z" fill="white"/>
<path d="M282.403 10.6991H275.748C275.618 10.6991 275.492 10.7506 275.4 10.8424C275.308 10.9341 275.256 11.0585 275.256 11.1882C275.256 11.318 275.308 11.4424 275.4 11.5341C275.492 11.6258 275.618 11.6774 275.748 11.6774H282.403C282.533 11.6774 282.658 11.6258 282.75 11.5341C282.843 11.4424 282.895 11.318 282.895 11.1882C282.895 11.0585 282.843 10.9341 282.75 10.8424C282.658 10.7506 282.533 10.6991 282.403 10.6991Z" fill="white"/>
<path d="M259.099 27.2986H245.407C244.72 27.2989 244.062 27.5702 243.576 28.0529C243.091 28.5356 242.818 29.1903 242.818 29.873V41.6636C242.819 42.346 243.092 43.0001 243.577 43.4827C244.063 43.9652 244.721 44.2368 245.407 44.2379H259.099C259.785 44.236 260.443 43.9641 260.928 43.4817C261.413 42.9994 261.686 42.3457 261.688 41.6636V29.873C261.687 29.1905 261.414 28.5364 260.929 28.0538C260.443 27.5713 259.785 27.2997 259.099 27.2986Z" fill="#FFD34D"/>
<path d="M276.111 51.9404H228.39C228.078 51.9404 227.779 52.0636 227.559 52.2827C227.338 52.5019 227.215 52.7992 227.215 53.1092C227.215 53.4192 227.338 53.7164 227.559 53.9356C227.779 54.1548 228.078 54.278 228.39 54.278H276.111C276.422 54.278 276.721 54.1548 276.942 53.9356C277.162 53.7164 277.286 53.4192 277.286 53.1092C277.286 52.7992 277.162 52.5019 276.942 52.2827C276.721 52.0636 276.422 51.9404 276.111 51.9404Z" fill="#E6E6E6"/>
<path d="M246.515 57.4187H228.39C228.078 57.4187 227.779 57.5418 227.559 57.761C227.338 57.9802 227.215 58.2775 227.215 58.5875C227.215 58.8975 227.338 59.1947 227.559 59.4139C227.779 59.6331 228.078 59.7562 228.39 59.7562H246.515C246.827 59.7562 247.126 59.6331 247.346 59.4139C247.567 59.1947 247.691 58.8975 247.691 58.5875C247.691 58.2775 247.567 57.9802 247.346 57.761C247.126 57.5418 246.827 57.4187 246.515 57.4187Z" fill="#E6E6E6"/>
<path d="M259.099 78.2711H245.407C244.72 78.2714 244.062 78.5427 243.576 79.0254C243.091 79.5082 242.818 80.1628 242.818 80.8455V92.6361C242.819 93.3185 243.092 93.9727 243.577 94.4552C244.063 94.9378 244.721 95.2094 245.407 95.2105H259.099C259.785 95.2085 260.443 94.9366 260.928 94.4543C261.413 93.9719 261.686 93.3183 261.688 92.6361V80.8455C261.687 80.1631 261.414 79.5089 260.929 79.0264C260.443 78.5438 259.785 78.2722 259.099 78.2711Z" fill="#FFD34D"/>
<path d="M276.111 102.913H228.39C228.078 102.913 227.779 103.036 227.559 103.255C227.338 103.474 227.215 103.772 227.215 104.082C227.215 104.392 227.338 104.689 227.559 104.908C227.779 105.127 228.078 105.25 228.39 105.25H276.111C276.422 105.25 276.721 105.127 276.942 104.908C277.162 104.689 277.286 104.392 277.286 104.082C277.286 103.772 277.162 103.474 276.942 103.255C276.721 103.036 276.422 102.913 276.111 102.913Z" fill="#E6E6E6"/>
<path d="M246.515 108.391H228.39C228.078 108.391 227.779 108.514 227.559 108.734C227.338 108.953 227.215 109.25 227.215 109.56C227.215 109.87 227.338 110.167 227.559 110.386C227.779 110.606 228.078 110.729 228.39 110.729H246.515C246.827 110.729 247.126 110.606 247.346 110.386C247.567 110.167 247.691 109.87 247.691 109.56C247.691 109.25 247.567 108.953 247.346 108.734C247.126 108.514 246.827 108.391 246.515 108.391Z" fill="#E6E6E6"/>
<path d="M259.099 129.244H245.407C244.72 129.244 244.062 129.515 243.576 129.998C243.091 130.481 242.818 131.135 242.818 131.818V143.609C242.819 144.291 243.092 144.945 243.577 145.428C244.063 145.91 244.721 146.182 245.407 146.183H259.099C259.785 146.181 260.443 145.909 260.928 145.427C261.413 144.944 261.686 144.291 261.688 143.609V131.818C261.687 131.136 261.414 130.481 260.929 129.999C260.443 129.516 259.785 129.245 259.099 129.244Z" fill="#FFD34D"/>
<path d="M276.111 153.885H228.39C228.078 153.885 227.779 154.009 227.559 154.228C227.338 154.447 227.215 154.744 227.215 155.054C227.215 155.364 227.338 155.662 227.559 155.881C227.779 156.1 228.078 156.223 228.39 156.223H276.111C276.422 156.223 276.721 156.1 276.942 155.881C277.162 155.662 277.286 155.364 277.286 155.054C277.286 154.744 277.162 154.447 276.942 154.228C276.721 154.009 276.422 153.885 276.111 153.885Z" fill="#E6E6E6"/>
<path d="M246.515 159.364H228.39C228.078 159.364 227.779 159.487 227.559 159.706C227.338 159.925 227.215 160.223 227.215 160.533C227.215 160.842 227.338 161.14 227.559 161.359C227.779 161.578 228.078 161.701 228.39 161.701H246.515C246.827 161.701 247.126 161.578 247.346 161.359C247.567 161.14 247.691 160.842 247.691 160.533C247.691 160.223 247.567 159.925 247.346 159.706C247.126 159.487 246.827 159.364 246.515 159.364Z" fill="#E6E6E6"/>
<path d="M194.73 1.06579C194.729 0.783307 194.616 0.512542 194.415 0.312785C194.214 0.113028 193.942 0.000555239 193.658 0H2.23217C1.94802 0.000545527 1.67566 0.113002 1.47472 0.312754C1.27378 0.512505 1.16063 0.783281 1.16004 1.06579V7.33696C1.15913 7.59804 1.25718 7.8499 1.43465 8.04234C1.26371 12.3003 1.16004 17.9125 1.16004 24.0601V165.604C1.16004 178.878 1.64174 189.669 2.23217 189.669H193.658C194.248 189.669 194.73 178.878 194.73 165.604V24.0601C194.73 17.9125 194.626 12.3003 194.456 8.04234C194.633 7.84987 194.731 7.59801 194.73 7.33696V1.06579Z" fill="#40464C"/>
<path d="M193.294 190.699H1.86806C1.28288 190.699 0.929629 190.699 0.593203 183.152C0.389965 178.593 0.278076 172.544 0.278076 166.119V24.5749C0.278076 18.6501 0.375743 12.9543 0.553125 8.53666C0.893538 6.87431e-06 1.28123 0 1.86806 0H193.294C193.881 0 194.268 0.00151529 194.609 8.53666C194.786 12.9503 194.884 18.6461 194.884 24.5749V166.119C194.884 172.544 194.772 178.593 194.569 183.152C194.232 190.699 193.879 190.699 193.294 190.699ZM2.17035 189.669H192.992C193.415 188.055 193.848 178.991 193.848 166.119V24.5749C193.848 18.6594 193.751 12.9779 193.574 8.57788V8.57764C193.358 3.1697 193.106 1.52401 192.986 1.02975H2.17598C2.05556 1.52403 1.80371 3.1697 1.58795 8.57764C1.41114 12.9822 1.31379 18.6634 1.31379 24.5749V166.119C1.31379 178.991 1.74652 188.055 2.17035 189.669Z" fill="black"/>
<path d="M193.807 0H2.233C1.94863 0.000602373 1.67606 0.124778 1.47497 0.345344C1.27387 0.56591 1.16063 0.864902 1.16004 1.17685V8.1015C1.15913 8.38979 1.25725 8.66789 1.43486 8.88038C1.53445 9.00516 1.65715 9.1052 1.79478 9.17383C1.93241 9.24245 2.0818 9.27809 2.23298 9.27835H193.807C193.958 9.27809 194.108 9.24245 194.245 9.17383C194.383 9.1052 194.506 9.00516 194.605 8.88038C194.783 8.66786 194.881 8.38976 194.88 8.1015V1.17685C194.879 0.864939 194.766 0.565967 194.565 0.345396C194.364 0.124825 194.092 0.000625114 193.807 0Z" fill="#060606"/>
<path d="M7.02169 5.92368C7.86244 5.92368 8.544 5.24604 8.544 4.41014C8.544 3.57424 7.86244 2.89661 7.02169 2.89661C6.18095 2.89661 5.49939 3.57424 5.49939 4.41014C5.49939 5.24604 6.18095 5.92368 7.02169 5.92368Z" fill="white"/>
<path d="M12.7998 5.92368C13.6405 5.92368 14.3221 5.24604 14.3221 4.41014C14.3221 3.57424 13.6405 2.89661 12.7998 2.89661C11.959 2.89661 11.2775 3.57424 11.2775 4.41014C11.2775 5.24604 11.959 5.92368 12.7998 5.92368Z" fill="white"/>
<path d="M18.5782 5.92368C19.419 5.92368 20.1005 5.24604 20.1005 4.41014C20.1005 3.57424 19.419 2.89661 18.5782 2.89661C17.7375 2.89661 17.0559 3.57424 17.0559 4.41014C17.0559 5.24604 17.7375 5.92368 18.5782 5.92368Z" fill="white"/>
<path d="M187.635 2.38904H180.98C180.85 2.38904 180.725 2.44057 180.632 2.5323C180.54 2.62403 180.488 2.74844 180.488 2.87817C180.488 3.00789 180.54 3.13231 180.632 3.22403C180.725 3.31576 180.85 3.3673 180.98 3.3673H187.635C187.765 3.3673 187.89 3.31576 187.983 3.22403C188.075 3.13231 188.127 3.00789 188.127 2.87817C188.127 2.74844 188.075 2.62403 187.983 2.5323C187.89 2.44057 187.765 2.38904 187.635 2.38904Z" fill="white"/>
<path d="M187.635 4.22717H180.98C180.85 4.22717 180.725 4.2787 180.632 4.37043C180.54 4.46216 180.488 4.58658 180.488 4.7163C180.488 4.84603 180.54 4.97044 180.632 5.06217C180.725 5.1539 180.85 5.20543 180.98 5.20543H187.635C187.765 5.20543 187.89 5.1539 187.983 5.06217C188.075 4.97044 188.127 4.84603 188.127 4.7163C188.127 4.58658 188.075 4.46216 187.983 4.37043C187.89 4.2787 187.765 4.22717 187.635 4.22717Z" fill="white"/>
<path d="M187.635 6.06519H180.98C180.85 6.06519 180.725 6.11672 180.632 6.20845C180.54 6.30018 180.488 6.42459 180.488 6.55432C180.488 6.68404 180.54 6.80845 180.632 6.90018C180.725 6.99191 180.85 7.04345 180.98 7.04345H187.635C187.765 7.04345 187.89 6.99191 187.983 6.90018C188.075 6.80845 188.127 6.68404 188.127 6.55432C188.127 6.42459 188.075 6.30018 187.983 6.20845C187.89 6.11672 187.765 6.06519 187.635 6.06519Z" fill="white"/>
<path d="M63.7427 31.9325H41.34C40.217 31.9339 39.1403 32.378 38.3463 33.1676C37.5522 33.9571 37.1055 35.0276 37.1041 36.1442V55.4365C37.1055 56.5531 37.5522 57.6235 38.3463 58.4131C39.1403 59.2026 40.217 59.6468 41.34 59.6482H63.7427C64.8657 59.6468 65.9423 59.2026 66.7364 58.4131C67.5305 57.6235 67.9772 56.5531 67.9786 55.4365V36.1442C67.9772 35.0276 67.5305 33.9571 66.7364 33.1676C65.9423 32.378 64.8657 31.9339 63.7427 31.9325Z" fill="#FFD34D"/>
<path d="M156.144 39.3929H78.0614C77.5512 39.3929 77.0618 39.5945 76.7011 39.9532C76.3403 40.3119 76.1376 40.7984 76.1376 41.3057C76.1376 41.813 76.3403 42.2995 76.7011 42.6582C77.0618 43.0169 77.5512 43.2185 78.0614 43.2185H156.144C156.654 43.2185 157.143 43.0169 157.504 42.6582C157.865 42.2995 158.068 41.813 158.068 41.3057C158.068 40.7984 157.865 40.3119 157.504 39.9532C157.143 39.5945 156.654 39.3929 156.144 39.3929Z" fill="#E6E6E6"/>
<path d="M107.719 48.3569H78.0614C77.5512 48.3569 77.0618 48.5585 76.701 48.9172C76.3403 49.2759 76.1376 49.7624 76.1376 50.2697C76.1376 50.777 76.3403 51.2635 76.701 51.6222C77.0618 51.9809 77.5512 52.1824 78.0614 52.1824H107.719C108.229 52.1824 108.719 51.9809 109.079 51.6222C109.44 51.2635 109.643 50.777 109.643 50.2697C109.643 49.7624 109.44 49.2759 109.079 48.9172C108.719 48.5585 108.229 48.3569 107.719 48.3569Z" fill="#E6E6E6"/>
<path d="M63.7427 83.4199H41.34C40.217 83.4213 39.1403 83.8655 38.3463 84.655C37.5522 85.4446 37.1055 86.515 37.1041 87.6316V106.924C37.1055 108.041 37.5522 109.111 38.3463 109.901C39.1403 110.69 40.217 111.134 41.34 111.136H63.7427C64.8657 111.134 65.9423 110.69 66.7364 109.901C67.5305 109.111 67.9772 108.041 67.9786 106.924V87.6316C67.9772 86.515 67.5305 85.4446 66.7364 84.655C65.9423 83.8655 64.8657 83.4213 63.7427 83.4199Z" fill="#FFD34D"/>
<path d="M156.144 90.8804H78.0614C77.5512 90.8804 77.0618 91.0819 76.7011 91.4406C76.3403 91.7993 76.1376 92.2858 76.1376 92.7931C76.1376 93.3004 76.3403 93.7869 76.7011 94.1456C77.0618 94.5044 77.5512 94.7059 78.0614 94.7059H156.144C156.654 94.7059 157.143 94.5044 157.504 94.1456C157.865 93.7869 158.068 93.3004 158.068 92.7931C158.068 92.2858 157.865 91.7993 157.504 91.4406C157.143 91.0819 156.654 90.8804 156.144 90.8804Z" fill="#E6E6E6"/>
<path d="M107.719 99.8444H78.0614C77.5512 99.8444 77.0618 100.046 76.701 100.405C76.3403 100.763 76.1376 101.25 76.1376 101.757C76.1376 102.264 76.3403 102.751 76.701 103.11C77.0618 103.468 77.5512 103.67 78.0614 103.67H107.719C108.229 103.67 108.719 103.468 109.079 103.11C109.44 102.751 109.643 102.264 109.643 101.757C109.643 101.25 109.44 100.763 109.079 100.405C108.719 100.046 108.229 99.8444 107.719 99.8444Z" fill="#E6E6E6"/>
<path d="M63.7427 134.907H41.34C40.217 134.909 39.1403 135.353 38.3463 136.142C37.5522 136.932 37.1055 138.002 37.1041 139.119V158.411C37.1055 159.528 37.5522 160.598 38.3463 161.388C39.1403 162.177 40.217 162.622 41.34 162.623H63.7427C64.8657 162.622 65.9423 162.177 66.7364 161.388C67.5305 160.598 67.9772 159.528 67.9786 158.411V139.119C67.9772 138.002 67.5305 136.932 66.7364 136.142C65.9423 135.353 64.8657 134.909 63.7427 134.907Z" fill="#FFD34D"/>
<path d="M156.144 142.368H78.0614C77.5512 142.368 77.0618 142.569 76.7011 142.928C76.3403 143.287 76.1376 143.773 76.1376 144.281C76.1376 144.788 76.3403 145.274 76.7011 145.633C77.0618 145.992 77.5512 146.193 78.0614 146.193H156.144C156.654 146.193 157.143 145.992 157.504 145.633C157.865 145.274 158.068 144.788 158.068 144.281C158.068 143.773 157.865 143.287 157.504 142.928C157.143 142.569 156.654 142.368 156.144 142.368Z" fill="#E6E6E6"/>
<path d="M107.719 151.332H78.0614C77.5512 151.332 77.0618 151.533 76.701 151.892C76.3403 152.251 76.1376 152.737 76.1376 153.245C76.1376 153.752 76.3403 154.238 76.701 154.597C77.0618 154.956 77.5512 155.157 78.0614 155.157H107.719C108.229 155.157 108.719 154.956 109.079 154.597C109.44 154.238 109.643 153.752 109.643 153.245C109.643 152.737 109.44 152.251 109.079 151.892C108.719 151.533 108.229 151.332 107.719 151.332Z" fill="#E6E6E6"/>
<path d="M227.475 224.166H99.2284C98.6371 224.166 98.1561 215.13 98.1561 204.022V85.5323C98.1561 74.4244 98.6371 65.3887 99.2284 65.3887H227.475C228.066 65.3887 228.547 74.4244 228.547 85.5323V204.022C228.547 215.13 228.066 224.166 227.475 224.166Z" fill="#40464C"/>
<path d="M227.475 224.681H99.2283C98.6858 224.681 98.2937 224.681 97.9534 218.287C97.7501 214.469 97.6382 209.403 97.6382 204.022V85.5322C97.6382 80.1514 97.7501 75.0854 97.9534 71.2679C98.2937 64.8737 98.6858 64.8737 99.2283 64.8737H227.475C228.018 64.8737 228.41 64.8737 228.75 71.2679C228.953 75.0854 229.065 80.1514 229.065 85.5322V204.022C229.065 209.403 228.953 214.469 228.75 218.287C228.41 224.681 228.018 224.681 227.475 224.681ZM99.5149 223.651H227.188C227.56 222.317 228.029 215.21 228.029 204.022V85.5322C228.029 74.3443 227.56 67.2374 227.188 65.9034H99.5149C99.1432 67.2374 98.6739 74.3442 98.6739 85.5322V204.022C98.6739 215.21 99.1432 222.317 99.5149 223.651Z" fill="black"/>
<path d="M227.475 73.7916H99.2284C98.9441 73.7913 98.6715 73.6789 98.4705 73.479C98.2695 73.2792 98.1564 73.0082 98.1561 72.7256V66.4547C98.1564 66.1721 98.2695 65.9011 98.4705 65.7013C98.6715 65.5014 98.9441 65.389 99.2284 65.3887H227.475C227.759 65.389 228.032 65.5014 228.233 65.7013C228.434 65.9011 228.547 66.1721 228.547 66.4547V72.7256C228.547 73.0082 228.434 73.2792 228.233 73.479C228.032 73.6789 227.759 73.7913 227.475 73.7916Z" fill="#060606"/>
<path d="M104.379 70.7978C105.22 70.7978 105.901 70.1202 105.901 69.2843C105.901 68.4484 105.22 67.7708 104.379 67.7708C103.538 67.7708 102.857 68.4484 102.857 69.2843C102.857 70.1202 103.538 70.7978 104.379 70.7978Z" fill="white"/>
<path d="M110.157 70.7978C110.998 70.7978 111.679 70.1202 111.679 69.2843C111.679 68.4484 110.998 67.7708 110.157 67.7708C109.316 67.7708 108.635 68.4484 108.635 69.2843C108.635 70.1202 109.316 70.7978 110.157 70.7978Z" fill="white"/>
<path d="M115.935 70.7978C116.776 70.7978 117.458 70.1202 117.458 69.2843C117.458 68.4484 116.776 67.7708 115.935 67.7708C115.095 67.7708 114.413 68.4484 114.413 69.2843C114.413 70.1202 115.095 70.7978 115.935 70.7978Z" fill="white"/>
<path d="M221.814 68.2425H215.16C215.029 68.2425 214.904 68.1909 214.811 68.099C214.719 68.0071 214.667 67.8825 214.667 67.7525C214.667 67.6225 214.719 67.4979 214.811 67.406C214.904 67.3141 215.029 67.2625 215.16 67.2625H221.814C221.944 67.2629 222.069 67.3147 222.161 67.4065C222.253 67.4984 222.305 67.6228 222.305 67.7525C222.305 67.8822 222.253 68.0066 222.161 68.0984C222.069 68.1903 221.944 68.2421 221.814 68.2425Z" fill="white"/>
<path d="M221.814 70.08H215.16C215.029 70.08 214.904 70.0284 214.811 69.9365C214.719 69.8446 214.667 69.72 214.667 69.59C214.667 69.46 214.719 69.3354 214.811 69.2435C214.904 69.1516 215.029 69.1 215.16 69.1H221.814C221.944 69.1 222.07 69.1516 222.162 69.2435C222.255 69.3354 222.307 69.46 222.307 69.59C222.307 69.72 222.255 69.8446 222.162 69.9365C222.07 70.0284 221.944 70.08 221.814 70.08Z" fill="white"/>
<path d="M221.814 71.9178H215.16C215.029 71.9178 214.904 71.8662 214.811 71.7743C214.719 71.6824 214.667 71.5577 214.667 71.4278C214.667 71.2978 214.719 71.1732 214.811 71.0813C214.904 70.9894 215.029 70.9377 215.16 70.9377H221.814C221.944 70.9382 222.069 70.99 222.161 71.0818C222.253 71.1737 222.305 71.2981 222.305 71.4278C222.305 71.5575 222.253 71.6819 222.161 71.7737C222.069 71.8656 221.944 71.9174 221.814 71.9178Z" fill="white"/>
<path d="M138.637 112.715H122.276C121.456 112.714 120.67 112.389 120.09 111.813C119.51 111.236 119.183 110.454 119.182 109.638V95.5498C119.183 94.7342 119.51 93.9523 120.09 93.3757C120.67 92.799 121.456 92.4746 122.276 92.4736H138.637C139.458 92.4746 140.244 92.799 140.824 93.3757C141.404 93.9523 141.73 94.7342 141.731 95.5498V109.638C141.73 110.454 141.404 111.236 140.824 111.812C140.244 112.389 139.458 112.714 138.637 112.715Z" fill="#FFD34D"/>
<path d="M206.116 100.718H149.095C148.722 100.718 148.365 100.57 148.102 100.309C147.838 100.047 147.69 99.6914 147.69 99.321C147.69 98.9506 147.838 98.5954 148.102 98.3335C148.365 98.0716 148.722 97.9244 149.095 97.9244H206.116C206.489 97.9244 206.846 98.0716 207.11 98.3335C207.373 98.5954 207.521 98.9506 207.521 99.321C207.521 99.6914 207.373 100.047 207.11 100.309C206.846 100.57 206.489 100.718 206.116 100.718Z" fill="#E6E6E6"/>
<path d="M170.621 107.623H148.964C148.591 107.623 148.234 107.476 147.97 107.214C147.707 106.952 147.559 106.597 147.559 106.226C147.559 105.856 147.707 105.501 147.97 105.239C148.234 104.977 148.591 104.83 148.964 104.83H170.621C170.806 104.829 170.989 104.865 171.16 104.935C171.33 105.005 171.485 105.108 171.616 105.238C171.747 105.367 171.851 105.521 171.921 105.691C171.992 105.861 172.029 106.043 172.029 106.226C172.029 106.41 171.992 106.592 171.921 106.761C171.851 106.931 171.747 107.085 171.616 107.215C171.485 107.344 171.33 107.447 171.16 107.517C170.989 107.587 170.806 107.623 170.621 107.623Z" fill="#E6E6E6"/>
<path d="M138.637 154.419H122.276C121.456 154.418 120.67 154.094 120.09 153.517C119.51 152.941 119.183 152.159 119.182 151.343V137.255C119.183 136.439 119.51 135.657 120.09 135.08C120.67 134.504 121.456 134.179 122.276 134.178H138.637C139.458 134.179 140.244 134.504 140.824 135.08C141.404 135.657 141.73 136.439 141.731 137.255V151.343C141.73 152.159 141.404 152.941 140.824 153.517C140.244 154.094 139.458 154.418 138.637 154.419Z" fill="#FFD34D"/>
<path d="M206.116 142.422H149.095C148.722 142.422 148.365 142.275 148.102 142.013C147.838 141.751 147.69 141.396 147.69 141.026C147.69 140.655 147.838 140.3 148.102 140.038C148.365 139.776 148.722 139.629 149.095 139.629H206.116C206.489 139.629 206.846 139.776 207.11 140.038C207.373 140.3 207.521 140.655 207.521 141.026C207.521 141.396 207.373 141.751 207.11 142.013C206.846 142.275 206.489 142.422 206.116 142.422Z" fill="#E6E6E6"/>
<path d="M170.753 148.968H149.095C148.722 148.968 148.365 148.821 148.102 148.559C147.838 148.297 147.69 147.942 147.69 147.572C147.69 147.201 147.838 146.846 148.102 146.584C148.365 146.322 148.722 146.175 149.095 146.175H170.753C170.937 146.175 171.12 146.211 171.291 146.281C171.462 146.351 171.617 146.454 171.748 146.583C171.878 146.713 171.982 146.867 172.053 147.037C172.123 147.206 172.16 147.388 172.16 147.572C172.16 147.756 172.123 147.937 172.053 148.107C171.982 148.277 171.878 148.431 171.748 148.56C171.617 148.69 171.462 148.793 171.291 148.863C171.12 148.933 170.937 148.969 170.753 148.968Z" fill="#E6E6E6"/>
<path d="M138.637 196.124H122.276C121.456 196.123 120.67 195.799 120.09 195.222C119.51 194.645 119.183 193.863 119.182 193.048V178.959C119.183 178.144 119.51 177.362 120.09 176.785C120.67 176.208 121.456 175.884 122.276 175.883H138.637C139.458 175.884 140.244 176.208 140.824 176.785C141.404 177.362 141.73 178.144 141.731 178.959V193.048C141.73 193.863 141.404 194.645 140.824 195.222C140.244 195.799 139.458 196.123 138.637 196.124Z" fill="#FFD34D"/>
<path d="M206.116 184.127H149.095C148.722 184.127 148.365 183.98 148.102 183.718C147.838 183.456 147.69 183.101 147.69 182.731C147.69 182.36 147.838 182.005 148.102 181.743C148.365 181.481 148.722 181.334 149.095 181.334H206.116C206.489 181.334 206.846 181.481 207.11 181.743C207.373 182.005 207.521 182.36 207.521 182.731C207.521 183.101 207.373 183.456 207.11 183.718C206.846 183.98 206.489 184.127 206.116 184.127Z" fill="#E6E6E6"/>
<path d="M170.753 190.673H149.095C148.722 190.673 148.365 190.526 148.102 190.264C147.838 190.002 147.69 189.647 147.69 189.277C147.69 188.906 147.838 188.551 148.102 188.289C148.365 188.027 148.722 187.88 149.095 187.88H170.753C170.937 187.88 171.12 187.916 171.291 187.986C171.462 188.056 171.617 188.159 171.748 188.288C171.878 188.418 171.982 188.572 172.053 188.742C172.123 188.911 172.16 189.093 172.16 189.277C172.16 189.46 172.123 189.642 172.053 189.812C171.982 189.981 171.878 190.135 171.748 190.265C171.617 190.395 171.462 190.498 171.291 190.568C171.12 190.638 170.937 190.674 170.753 190.673Z" fill="#E6E6E6"/>
</svg>
