<svg width="54" height="61" viewBox="0 0 54 61" fill="none" xmlns="http://www.w3.org/2000/svg">
<path d="M45.7069 46.4712C40.3917 56.2867 20.993 56.2994 20.993 56.2994L25.5542 47.8762C25.5542 47.8762 32.3845 48.2185 34.8021 43.9213C37.2197 39.6241 31.5102 36.8773 31.5102 36.8773L36.7876 27.1314C36.7876 27.1314 51.022 36.6557 45.7069 46.4712Z" fill="white"/>
<path d="M8.46058 13.8173C13.8831 4.02714 33.2924 4.10879 33.2924 4.10879L28.639 12.5102C28.639 12.5102 21.8087 12.1347 19.344 16.4203C16.8794 20.706 22.5628 23.4807 22.5628 23.4807L17.1787 33.2014C17.1787 33.2014 3.0381 23.6074 8.46058 13.8173Z" fill="white"/>
<path d="M18.8248 56.1953L7.79798 56.1953L35.712 4.10222L46.0308 4.10222L18.8248 56.1953Z" fill="#FFD34D"/>
</svg>
