<svg width="286" height="293" viewBox="0 0 286 293" fill="none" xmlns="http://www.w3.org/2000/svg">
<g clip-path="url(#clip0_5:388)">
<path d="M176.983 219.882H30.8491V293H176.983V219.882Z" fill="#40464C"/>
<path opacity="0.1" d="M139.831 293H31.467C31.3033 293 31.1464 292.933 31.0306 292.815C30.9149 292.697 30.8496 292.537 30.8491 292.37V220.513C30.8496 220.346 30.9149 220.186 31.0306 220.067C31.1464 219.949 31.3033 219.883 31.467 219.882H32.8388L139.831 293Z" fill="black"/>
<path d="M170.106 76.3608H105.384V75H76.0365V76.3608H11.0478C10.4728 76.3608 9.90354 76.4763 9.37238 76.7007C8.84122 76.9252 8.3586 77.2541 7.95207 77.6688C7.54554 78.0836 7.22306 78.5759 7.00305 79.1177C6.78304 79.6596 6.6698 80.2403 6.6698 80.8268V171.233C6.6698 172.417 7.13104 173.553 7.95207 174.391C8.77309 175.228 9.88664 175.699 11.0478 175.699H170.106C171.267 175.699 172.38 175.228 173.201 174.391C174.023 173.553 174.484 172.417 174.484 171.233V80.8268C174.484 80.2403 174.371 79.6596 174.151 79.1177C173.931 78.5759 173.608 78.0836 173.201 77.6688C172.795 77.2541 172.312 76.9252 171.781 76.7007C171.25 76.4763 170.681 76.3608 170.106 76.3608Z" fill="black"/>
<path d="M168.613 84.2522H12.5406V174.067H168.613V84.2522Z" fill="#40464C"/>
<path d="M90.4434 81.804C91.3275 81.804 92.0442 81.0729 92.0442 80.171C92.0442 79.2692 91.3275 78.5381 90.4434 78.5381C89.5593 78.5381 88.8427 79.2692 88.8427 80.171C88.8427 81.0729 89.5593 81.804 90.4434 81.804Z" fill="#FFD34D"/>
<path d="M58.9636 117.77H55.2562C55.0105 117.769 54.7749 117.67 54.6011 117.492C54.4274 117.315 54.3296 117.075 54.3293 116.824V113.042C54.3296 112.791 54.4274 112.551 54.6011 112.374C54.7749 112.197 55.0105 112.097 55.2562 112.097H58.9636C59.2093 112.097 59.4449 112.197 59.6187 112.374C59.7924 112.551 59.8902 112.791 59.8904 113.042V116.824C59.8902 117.075 59.7924 117.315 59.6187 117.492C59.4449 117.67 59.2093 117.769 58.9636 117.77ZM55.2562 112.727C55.1743 112.727 55.0958 112.76 55.0379 112.819C54.9799 112.879 54.9474 112.959 54.9472 113.042V116.824C54.9474 116.908 54.9799 116.988 55.0379 117.047C55.0958 117.106 55.1743 117.139 55.2562 117.139H58.9636C59.0455 117.139 59.124 117.106 59.1819 117.047C59.2399 116.988 59.2724 116.908 59.2725 116.824V113.042C59.2724 112.959 59.2399 112.879 59.1819 112.819C59.124 112.76 59.0455 112.727 58.9636 112.727H55.2562Z" fill="white"/>
<path d="M125.079 117.139H54.6383V117.77H125.079V117.139Z" fill="white"/>
<path d="M123.225 134.473H106.851V139.516H123.225V134.473Z" fill="#FFD34D"/>
<path d="M124.461 138.255H109.322C109.077 138.255 108.841 138.155 108.667 137.978C108.494 137.801 108.396 137.56 108.396 137.31V133.528C108.396 133.277 108.494 133.037 108.667 132.86C108.841 132.682 109.077 132.583 109.322 132.582H124.461C124.707 132.583 124.942 132.682 125.116 132.86C125.29 133.037 125.388 133.277 125.388 133.528V137.31C125.388 137.56 125.29 137.801 125.116 137.978C124.942 138.155 124.707 138.255 124.461 138.255ZM109.322 133.213C109.241 133.213 109.162 133.246 109.104 133.305C109.046 133.364 109.014 133.444 109.014 133.528V137.31C109.014 137.393 109.046 137.473 109.104 137.532C109.162 137.592 109.241 137.625 109.322 137.625H124.461C124.543 137.625 124.621 137.592 124.679 137.532C124.737 137.473 124.77 137.393 124.77 137.31V133.528C124.77 133.444 124.737 133.364 124.679 133.305C124.621 133.246 124.543 133.213 124.461 133.213H109.322Z" fill="black"/>
<path d="M276.895 191.182H246V213.244H276.895V191.182Z" fill="#FFD34D"/>
<path d="M279.985 211.51H250.325C249.998 211.51 249.683 211.377 249.452 211.141C249.22 210.904 249.09 210.584 249.089 210.25V189.449C249.09 189.115 249.22 188.794 249.452 188.558C249.683 188.322 249.998 188.189 250.325 188.188H279.985C280.312 188.189 280.626 188.322 280.858 188.558C281.09 188.794 281.22 189.115 281.22 189.449V210.25C281.22 210.584 281.09 210.904 280.858 211.141C280.626 211.377 280.312 211.51 279.985 211.51ZM250.325 189.449V210.25H279.985L279.985 189.449H250.325Z" fill="black"/>
<path d="M276.586 188.661H275.35C275.35 185.903 274.276 183.257 272.364 181.307C270.452 179.356 267.859 178.261 265.155 178.261C262.451 178.261 259.858 179.356 257.946 181.307C256.034 183.257 254.96 185.903 254.96 188.661H253.724C253.724 185.568 254.928 182.602 257.072 180.415C259.216 178.229 262.123 177 265.155 177C268.187 177 271.094 178.229 273.238 180.415C275.382 182.602 276.586 185.568 276.586 188.661Z" fill="black"/>
<path d="M268.244 197.328C268.245 196.779 268.105 196.24 267.839 195.763C267.572 195.286 267.188 194.889 266.725 194.61C266.261 194.331 265.735 194.18 265.197 194.173C264.659 194.165 264.128 194.301 263.658 194.567C263.187 194.833 262.793 195.22 262.514 195.689C262.235 196.158 262.08 196.694 262.066 197.242C262.052 197.791 262.179 198.334 262.434 198.817C262.689 199.301 263.063 199.708 263.519 199.998V203.381C263.519 203.6 263.562 203.817 263.644 204.019C263.726 204.222 263.847 204.406 263.998 204.561C264.15 204.716 264.331 204.839 264.529 204.922C264.727 205.006 264.94 205.049 265.155 205.049C265.589 205.049 266.005 204.874 266.312 204.561C266.618 204.248 266.791 203.823 266.791 203.381V199.998C267.235 199.716 267.602 199.322 267.856 198.855C268.111 198.388 268.244 197.862 268.244 197.328Z" fill="black"/>
<path d="M92.7937 252.344H87.8505V252.974H92.7937V252.344Z" fill="black"/>
<path d="M99.5905 252.344H94.6473V252.974H99.5905V252.344Z" fill="black"/>
<path d="M106.387 252.344H101.444V252.974H106.387V252.344Z" fill="black"/>
<path d="M113.184 252.344H108.241V252.974H113.184V252.344Z" fill="black"/>
<path d="M119.981 252.344H115.038V252.974H119.981V252.344Z" fill="black"/>
<path d="M183.471 287.642H38.573C38.2453 287.642 37.9312 287.509 37.6995 287.273C37.4678 287.036 37.3375 286.716 37.3372 286.382V214.525C37.3375 214.19 37.4678 213.87 37.6995 213.634C37.9312 213.397 38.2453 213.264 38.573 213.264H183.471C183.798 213.264 184.112 213.397 184.344 213.634C184.576 213.87 184.706 214.19 184.706 214.525V286.382C184.706 286.716 184.576 287.036 184.344 287.273C184.112 287.509 183.798 287.642 183.471 287.642ZM38.573 214.525V286.382H183.471L183.471 214.525H38.573Z" fill="black"/>
<path d="M45.0609 225.24C46.0846 225.24 46.9146 224.393 46.9146 223.349C46.9146 222.305 46.0846 221.458 45.0609 221.458C44.0371 221.458 43.2072 222.305 43.2072 223.349C43.2072 224.393 44.0371 225.24 45.0609 225.24Z" fill="black"/>
<path d="M51.5488 225.24C52.5725 225.24 53.4025 224.393 53.4025 223.349C53.4025 222.305 52.5725 221.458 51.5488 221.458C50.525 221.458 49.6951 222.305 49.6951 223.349C49.6951 224.393 50.525 225.24 51.5488 225.24Z" fill="black"/>
<path d="M58.0367 225.24C59.0605 225.24 59.8904 224.393 59.8904 223.349C59.8904 222.305 59.0605 221.458 58.0367 221.458C57.0129 221.458 56.183 222.305 56.183 223.349C56.183 224.393 57.0129 225.24 58.0367 225.24Z" fill="black"/>
<path d="M124.77 256.756H83.0617C82.816 256.756 82.5804 256.656 82.4067 256.479C82.2329 256.302 82.1352 256.062 82.1349 255.811V245.095C82.1352 244.845 82.2329 244.604 82.4067 244.427C82.5804 244.25 82.816 244.15 83.0617 244.15H124.77C125.016 244.15 125.251 244.25 125.425 244.427C125.599 244.604 125.697 244.845 125.697 245.095V255.811C125.697 256.062 125.599 256.302 125.425 256.479C125.251 256.656 125.016 256.756 124.77 256.756ZM83.0617 244.78C82.9798 244.78 82.9013 244.814 82.8434 244.873C82.7854 244.932 82.7529 245.012 82.7528 245.095V255.811C82.7529 255.894 82.7854 255.975 82.8434 256.034C82.9013 256.093 82.9798 256.126 83.0617 256.126H124.77C124.852 256.126 124.93 256.093 124.988 256.034C125.046 255.975 125.079 255.894 125.079 255.811V245.095C125.079 245.012 125.046 244.932 124.988 244.873C124.93 244.814 124.852 244.78 124.77 244.78H83.0617Z" fill="black"/>
<path d="M135.274 257.071C138.346 257.071 140.835 254.532 140.835 251.399C140.835 248.265 138.346 245.726 135.274 245.726C132.203 245.726 129.713 248.265 129.713 251.399C129.713 254.532 132.203 257.071 135.274 257.071Z" fill="#FFD34D"/>
<path d="M137.128 256.441C135.967 256.441 134.832 256.09 133.867 255.432C132.901 254.774 132.149 253.839 131.705 252.744C131.26 251.65 131.144 250.446 131.371 249.285C131.597 248.123 132.156 247.056 132.977 246.219C133.798 245.381 134.844 244.811 135.983 244.58C137.121 244.349 138.302 244.467 139.374 244.921C140.447 245.374 141.364 246.141 142.009 247.126C142.654 248.111 142.998 249.269 142.998 250.453C142.996 252.04 142.377 253.563 141.277 254.685C140.176 255.808 138.684 256.439 137.128 256.441ZM137.128 245.095C136.089 245.095 135.074 245.409 134.21 245.998C133.346 246.587 132.673 247.424 132.276 248.403C131.878 249.382 131.774 250.459 131.977 251.498C132.179 252.537 132.68 253.492 133.414 254.241C134.149 254.991 135.085 255.501 136.103 255.708C137.122 255.914 138.178 255.808 139.138 255.403C140.098 254.997 140.918 254.311 141.495 253.43C142.072 252.548 142.38 251.513 142.38 250.453C142.379 249.032 141.825 247.671 140.84 246.666C139.855 245.662 138.52 245.097 137.128 245.095Z" fill="black"/>
<path d="M137.21 252.69L134.219 249.638L135.093 248.747L137.045 250.738L142.493 242.841L143.503 243.567L137.21 252.69Z" fill="black"/>
<path opacity="0.1" d="M134.011 174.067H12.5406V91.0566L134.011 174.067Z" fill="black"/>
<path d="M178.866 172.433H163.634V171.314C163.634 171.284 163.629 171.256 163.618 171.229C163.607 171.202 163.591 171.177 163.57 171.157C163.55 171.136 163.526 171.12 163.5 171.108C163.473 171.097 163.445 171.092 163.417 171.092H158.194C158.166 171.092 158.137 171.097 158.111 171.108C158.085 171.12 158.061 171.136 158.04 171.157C158.02 171.177 158.004 171.202 157.993 171.229C157.982 171.256 157.977 171.284 157.977 171.314V172.433H154.713V171.314C154.713 171.284 154.707 171.256 154.696 171.229C154.685 171.202 154.669 171.177 154.649 171.157C154.629 171.136 154.605 171.12 154.578 171.108C154.552 171.097 154.524 171.092 154.495 171.092H149.273C149.244 171.092 149.216 171.097 149.189 171.108C149.163 171.12 149.139 171.136 149.119 171.157C149.099 171.177 149.083 171.202 149.072 171.229C149.061 171.256 149.055 171.284 149.055 171.314V172.433H145.791V171.314C145.791 171.284 145.785 171.256 145.775 171.229C145.764 171.202 145.748 171.177 145.727 171.157C145.707 171.136 145.683 171.12 145.657 171.108C145.63 171.097 145.602 171.092 145.573 171.092H140.351C140.323 171.092 140.294 171.097 140.268 171.108C140.241 171.12 140.217 171.136 140.197 171.157C140.177 171.177 140.161 171.202 140.15 171.229C140.139 171.256 140.134 171.284 140.134 171.314V172.433H136.87V171.314C136.87 171.284 136.864 171.256 136.853 171.229C136.842 171.202 136.826 171.177 136.806 171.157C136.786 171.136 136.762 171.12 136.735 171.108C136.709 171.097 136.681 171.092 136.652 171.092H131.43C131.401 171.092 131.373 171.097 131.346 171.108C131.32 171.12 131.296 171.136 131.276 171.157C131.256 171.177 131.239 171.202 131.229 171.229C131.218 171.256 131.212 171.284 131.212 171.314V172.433H127.948V171.314C127.948 171.284 127.942 171.256 127.931 171.229C127.921 171.202 127.904 171.177 127.884 171.157C127.864 171.136 127.84 171.12 127.814 171.108C127.787 171.097 127.759 171.092 127.73 171.092H122.508C122.479 171.092 122.451 171.097 122.425 171.108C122.398 171.12 122.374 171.136 122.354 171.157C122.334 171.177 122.318 171.202 122.307 171.229C122.296 171.256 122.29 171.284 122.29 171.314V172.433H119.026V171.314C119.026 171.284 119.021 171.256 119.01 171.229C118.999 171.202 118.983 171.177 118.963 171.157C118.943 171.136 118.919 171.12 118.892 171.108C118.866 171.097 118.837 171.092 118.809 171.092H113.586C113.558 171.092 113.53 171.097 113.503 171.108C113.477 171.12 113.453 171.136 113.433 171.157C113.412 171.177 113.396 171.202 113.385 171.229C113.375 171.256 113.369 171.284 113.369 171.314V172.433H110.105V171.314C110.105 171.284 110.099 171.256 110.088 171.229C110.077 171.202 110.061 171.177 110.041 171.157C110.021 171.136 109.997 171.12 109.971 171.108C109.944 171.097 109.916 171.092 109.887 171.092H68.9788C68.9502 171.092 68.9219 171.097 68.8955 171.108C68.8691 171.12 68.8451 171.136 68.8249 171.157C68.8047 171.177 68.7887 171.202 68.7777 171.229C68.7668 171.256 68.7612 171.284 68.7612 171.314V172.433H65.4972V171.314C65.4972 171.284 65.4916 171.256 65.4806 171.229C65.4697 171.202 65.4537 171.177 65.4334 171.157C65.4132 171.136 65.3893 171.12 65.3629 171.108C65.3365 171.097 65.3082 171.092 65.2796 171.092H60.0572C60.0286 171.092 60.0004 171.097 59.9739 171.108C59.9475 171.12 59.9236 171.136 59.9034 171.157C59.8831 171.177 59.8671 171.202 59.8562 171.229C59.8452 171.256 59.8396 171.284 59.8396 171.314V172.433H56.5756V171.314C56.5756 171.284 56.57 171.256 56.5591 171.229C56.5481 171.202 56.5321 171.177 56.5119 171.157C56.4917 171.136 56.4677 171.12 56.4413 171.108C56.4149 171.097 56.3866 171.092 56.358 171.092H51.1357C51.1071 171.092 51.0788 171.097 51.0524 171.108C51.026 171.12 51.002 171.136 50.9818 171.157C50.9616 171.177 50.9456 171.202 50.9346 171.229C50.9237 171.256 50.9181 171.284 50.9181 171.314V172.433H47.6541V171.314C47.6541 171.284 47.6485 171.256 47.6375 171.229C47.6266 171.202 47.6106 171.177 47.5904 171.157C47.5702 171.136 47.5462 171.12 47.5198 171.108C47.4934 171.097 47.4651 171.092 47.4365 171.092H42.2141C42.1856 171.092 42.1573 171.097 42.1309 171.108C42.1045 171.12 42.0805 171.136 42.0603 171.157C42.0401 171.177 42.024 171.202 42.0131 171.229C42.0022 171.256 41.9965 171.284 41.9965 171.314V172.433H38.7326V171.314C38.7326 171.284 38.7269 171.256 38.716 171.229C38.7051 171.202 38.689 171.177 38.6688 171.157C38.6486 171.136 38.6246 171.12 38.5982 171.108C38.5718 171.097 38.5435 171.092 38.515 171.092H33.2926C33.264 171.092 33.2357 171.097 33.2093 171.108C33.1829 171.12 33.1589 171.136 33.1387 171.157C33.1185 171.177 33.1025 171.202 33.0915 171.229C33.0806 171.256 33.075 171.284 33.075 171.314V172.433H29.811V171.314C29.811 171.284 29.8054 171.256 29.7945 171.229C29.7835 171.202 29.7675 171.177 29.7473 171.157C29.7271 171.136 29.7031 171.12 29.6767 171.108C29.6503 171.097 29.622 171.092 29.5934 171.092H24.371C24.3425 171.092 24.3142 171.097 24.2878 171.108C24.2614 171.12 24.2374 171.136 24.2172 171.157C24.197 171.177 24.1809 171.202 24.17 171.229C24.1591 171.256 24.1534 171.284 24.1534 171.314V172.433H20.8895V171.314C20.8895 171.284 20.8838 171.256 20.8729 171.229C20.862 171.202 20.8459 171.177 20.8257 171.157C20.8055 171.136 20.7815 171.12 20.7551 171.108C20.7287 171.097 20.7004 171.092 20.6719 171.092H15.4495C15.4209 171.092 15.3926 171.097 15.3662 171.108C15.3398 171.12 15.3158 171.136 15.2956 171.157C15.2754 171.177 15.2594 171.202 15.2485 171.229C15.2375 171.256 15.2319 171.284 15.2319 171.314V172.433H5.22237C4.53655 172.433 3.85746 172.571 3.22385 172.839C2.59025 173.106 2.01454 173.499 1.52959 173.993C1.04465 174.488 0.659976 175.075 0.397528 175.722C0.13508 176.368 -4.05719e-07 177.061 0 177.76V180.169C3.27754e-06 181.582 0.550217 182.937 1.5296 183.936C2.50898 184.935 3.83731 185.497 5.22237 185.497H178.866C179.552 185.497 180.231 185.359 180.865 185.091C181.498 184.823 182.074 184.431 182.559 183.936C183.044 183.442 183.428 182.854 183.691 182.208C183.953 181.562 184.088 180.869 184.088 180.169V177.76C184.088 177.061 183.953 176.368 183.691 175.722C183.428 175.075 183.044 174.488 182.559 173.993C182.074 173.499 181.498 173.106 180.865 172.839C180.231 172.571 179.552 172.433 178.866 172.433Z" fill="black"/>
<path d="M131.258 143.613H49.695C49.4493 143.613 49.2137 143.513 49.04 143.336C48.8662 143.159 48.7685 142.918 48.7682 142.668V108C48.7685 107.749 48.8662 107.509 49.04 107.331C49.2137 107.154 49.4493 107.054 49.695 107.054H131.258C131.504 107.054 131.739 107.154 131.913 107.331C132.087 107.509 132.185 107.749 132.185 108V142.668C132.185 142.918 132.087 143.159 131.913 143.336C131.739 143.513 131.504 143.613 131.258 143.613ZM49.695 107.685C49.6131 107.685 49.5346 107.718 49.4767 107.777C49.4188 107.836 49.3862 107.916 49.3861 108V142.668C49.3862 142.751 49.4188 142.831 49.4767 142.89C49.5346 142.949 49.6131 142.983 49.695 142.983H131.258C131.34 142.983 131.418 142.949 131.476 142.89C131.534 142.831 131.567 142.751 131.567 142.668V108C131.567 107.916 131.534 107.836 131.476 107.777C131.418 107.718 131.34 107.685 131.258 107.685H49.695Z" fill="black"/>
<path d="M58.9636 127.225H55.2562C55.0105 127.224 54.7749 127.125 54.6011 126.947C54.4274 126.77 54.3296 126.53 54.3293 126.279V122.497C54.3296 122.247 54.4274 122.006 54.6011 121.829C54.7749 121.652 55.0105 121.552 55.2562 121.552H58.9636C59.2093 121.552 59.4449 121.652 59.6187 121.829C59.7924 122.006 59.8902 122.247 59.8904 122.497V126.279C59.8902 126.53 59.7924 126.77 59.6187 126.947C59.4449 127.125 59.2093 127.224 58.9636 127.225ZM55.2562 122.182C55.1743 122.182 55.0958 122.215 55.0379 122.275C54.9799 122.334 54.9474 122.414 54.9472 122.497V126.279C54.9474 126.363 54.9799 126.443 55.0379 126.502C55.0958 126.561 55.1743 126.594 55.2562 126.594H58.9636C59.0455 126.594 59.124 126.561 59.1819 126.502C59.2399 126.443 59.2724 126.363 59.2725 126.279V122.497C59.2724 122.414 59.2399 122.334 59.1819 122.275C59.124 122.215 59.0455 122.182 58.9636 122.182H55.2562Z" fill="white"/>
<path d="M125.079 126.594H54.6383V127.225H125.079V126.594Z" fill="white"/>
<path d="M81.8259 164.414C84.2147 164.414 86.1512 162.438 86.1512 160.001C86.1512 157.565 84.2147 155.589 81.8259 155.589C79.4371 155.589 77.5006 157.565 77.5006 160.001C77.5006 162.438 79.4371 164.414 81.8259 164.414Z" fill="black"/>
<path d="M100 235C102.209 235 104 233.209 104 231C104 228.791 102.209 227 100 227C97.7909 227 96 228.791 96 231C96 233.209 97.7909 235 100 235Z" fill="black"/>
<path d="M87 160H162V202H240.5" stroke="#FFD34D" stroke-width="2"/>
<path d="M261 110L261 174" stroke="#FFD34D" stroke-width="2"/>
<path d="M105 231H261V217.5" stroke="#FFD34D" stroke-width="2"/>
<path d="M241 204C242.105 204 243 203.105 243 202C243 200.895 242.105 200 241 200C239.895 200 239 200.895 239 202C239 203.105 239.895 204 241 204Z" fill="black"/>
<path d="M261 221C262.105 221 263 220.105 263 219C263 217.895 262.105 217 261 217C259.895 217 259 217.895 259 219C259 220.105 259.895 221 261 221Z" fill="black"/>
<path d="M285.11 25.334H284.536V9.28737C284.536 8.06773 284.3 6.86004 283.842 5.73324C283.385 4.60644 282.714 3.58261 281.869 2.7202C281.024 1.85779 280.02 1.17368 278.915 0.706952C277.811 0.240219 276.627 -3.72486e-06 275.431 0H242.104C240.909 -3.72486e-06 239.725 0.240219 238.62 0.706952C237.516 1.17368 236.512 1.85779 235.667 2.7202C234.821 3.58261 234.151 4.60644 233.693 5.73324C233.235 6.86004 233 8.06773 233 9.28737V97.3206C233 98.5402 233.235 99.7479 233.693 100.875C234.151 102.002 234.821 103.025 235.667 103.888C236.512 104.75 237.516 105.434 238.62 105.901C239.725 106.368 240.909 106.608 242.104 106.608H275.431C276.627 106.608 277.811 106.368 278.915 105.901C280.02 105.434 281.024 104.75 281.869 103.888C282.714 103.025 283.385 102.002 283.842 100.875C284.3 99.7479 284.536 98.5402 284.536 97.3206V36.7563H285.11V25.334Z" fill="black"/>
<path d="M282.598 9.83299V97.7381C282.598 99.5778 281.882 101.342 280.606 102.643C279.331 103.944 277.601 104.675 275.798 104.675H242.311C241.418 104.675 240.534 104.495 239.709 104.146C238.884 103.798 238.135 103.287 237.504 102.643C236.873 101.998 236.372 101.234 236.031 100.392C235.689 99.5507 235.514 98.6488 235.514 97.7381V9.83299C235.514 7.9941 236.23 6.23053 237.505 4.93024C238.779 3.62995 240.508 2.89944 242.311 2.89941H246.374C246.174 3.3997 246.098 3.94229 246.153 4.47948C246.207 5.01666 246.39 5.53199 246.685 5.98018C246.981 6.42837 247.38 6.79568 247.847 7.04984C248.314 7.30399 248.835 7.4372 249.364 7.43776H268.457C268.987 7.43878 269.509 7.30658 269.977 7.05286C270.445 6.79913 270.845 6.4317 271.14 5.98304C271.436 5.53438 271.619 5.01832 271.672 4.48049C271.726 3.94266 271.649 3.39963 271.448 2.89941H275.798C277.601 2.89933 279.33 3.6297 280.605 4.92993C281.881 6.23015 282.597 7.99377 282.598 9.83299Z" fill="#40464C"/>
<path d="M276.258 47.9048H237.331V58.6203H276.258V47.9048Z" fill="#FFD34D"/>
<path d="M277.803 56.7294H240.111C239.865 56.7291 239.63 56.6294 239.456 56.4522C239.282 56.2749 239.185 56.0346 239.184 55.7839V46.329C239.185 46.0784 239.282 45.838 239.456 45.6608C239.63 45.4835 239.865 45.3838 240.111 45.3835H277.803C278.049 45.3838 278.284 45.4835 278.458 45.6608C278.632 45.838 278.73 46.0784 278.73 46.329V55.7839C278.73 56.0346 278.632 56.2749 278.458 56.4522C278.284 56.6294 278.049 56.7291 277.803 56.7294ZM240.111 46.0139C240.029 46.014 239.951 46.0472 239.893 46.1063C239.835 46.1654 239.802 46.2455 239.802 46.329V55.7839C239.802 55.8675 239.835 55.9476 239.893 56.0067C239.951 56.0658 240.029 56.099 240.111 56.0991H277.803C277.885 56.099 277.964 56.0658 278.022 56.0067C278.079 55.9476 278.112 55.8675 278.112 55.7839V46.329C278.112 46.2455 278.079 46.1654 278.022 46.1063C277.964 46.0472 277.885 46.014 277.803 46.0139H240.111Z" fill="#3F3D56"/>
<path d="M246.599 53.8928H241.656V54.5232H246.599V53.8928Z" fill="#3F3D56"/>
<path d="M253.396 53.8928H248.453V54.5232H253.396V53.8928Z" fill="#3F3D56"/>
<path d="M260.193 53.8928H255.25V54.5232H260.193V53.8928Z" fill="#3F3D56"/>
<path d="M266.99 53.8928H262.047V54.5232H266.99V53.8928Z" fill="#3F3D56"/>
<path d="M273.787 53.8928H268.844V54.5232H273.787V53.8928Z" fill="#3F3D56"/>
<path opacity="0.1" d="M282.598 88.8001V97.7382C282.598 99.5779 281.882 101.342 280.606 102.643C279.331 103.944 277.601 104.675 275.798 104.675H242.311C241.418 104.675 240.534 104.495 239.709 104.147C238.884 103.798 238.135 103.287 237.504 102.643C236.873 101.999 236.372 101.234 236.031 100.392C235.689 99.5508 235.514 98.6489 235.514 97.7382V56.6221L282.598 88.8001Z" fill="black"/>
</g>
<defs>
<clipPath id="clip0_5:388">
<rect width="286" height="293" fill="white"/>
</clipPath>
</defs>
</svg>
