<svg width="340" height="223" viewBox="0 0 340 223" fill="none" xmlns="http://www.w3.org/2000/svg">
<path d="M325.254 222.179H225.838C222.221 222.175 218.753 220.742 216.195 218.193C213.638 215.645 212.199 212.19 212.195 208.586V52.3347C212.199 48.7309 213.638 45.2757 216.195 42.7274C218.753 40.1791 222.221 38.7456 225.838 38.7416H325.254C328.871 38.7456 332.339 40.1791 334.896 42.7274C337.454 45.2757 338.892 48.7309 338.896 52.3347V208.586C338.892 212.19 337.454 215.645 334.896 218.193C332.339 220.742 328.871 222.175 325.254 222.179Z" fill="#020202"/>
<path d="M326.903 46.8527H225.65C224.518 46.8541 223.432 47.3028 222.632 48.1005C221.831 48.8982 221.381 49.9798 221.379 51.1079V209.397C221.381 210.525 221.832 211.606 222.632 212.404C223.433 213.201 224.518 213.65 225.65 213.652H326.903C328.035 213.65 329.12 213.202 329.921 212.404C330.722 211.606 331.172 210.525 331.173 209.397V51.1079C331.172 49.9798 330.722 48.8982 329.921 48.1005C329.12 47.3028 328.035 46.8541 326.903 46.8527Z" fill="#40464C"/>
<path d="M228.268 38.7416C228.268 38.4659 228.378 38.2016 228.574 38.0066C228.769 37.8117 229.035 37.702 229.311 37.7017H236.408C236.685 37.7017 236.951 37.8112 237.146 38.0062C237.342 38.2013 237.452 38.4658 237.452 38.7416C237.452 39.0173 237.342 39.2819 237.146 39.4769C236.951 39.6719 236.685 39.7814 236.408 39.7814H229.311C229.035 39.7811 228.769 39.6714 228.574 39.4765C228.378 39.2816 228.268 39.0172 228.268 38.7416Z" fill="#E6E6E6"/>
<path d="M239.957 38.7416C239.957 38.4659 240.067 38.2016 240.263 38.0066C240.459 37.8117 240.724 37.702 241 37.7017H248.097C248.374 37.7017 248.64 37.8112 248.835 38.0062C249.031 38.2013 249.141 38.4658 249.141 38.7416C249.141 39.0173 249.031 39.2819 248.835 39.4769C248.64 39.6719 248.374 39.7814 248.097 39.7814H241C240.724 39.7811 240.459 39.6715 240.263 39.4765C240.067 39.2816 239.957 39.0172 239.957 38.7416Z" fill="#E6E6E6"/>
<path d="M310.091 38.7416C310.092 38.4659 310.202 38.2016 310.397 38.0066C310.593 37.8117 310.858 37.702 311.135 37.7017H318.232C318.509 37.7017 318.774 37.8112 318.97 38.0062C319.166 38.2013 319.275 38.4658 319.275 38.7416C319.275 39.0173 319.166 39.2819 318.97 39.4769C318.774 39.6719 318.509 39.7814 318.232 39.7814H311.135C310.858 39.7811 310.593 39.6715 310.397 39.4765C310.202 39.2816 310.092 39.0173 310.091 38.7416Z" fill="#5A5A5A"/>
<path d="M290.307 210.391C290.307 211.485 290.287 212.575 290.236 213.652H225.65C224.518 213.65 223.433 213.201 222.632 212.404C221.832 211.606 221.381 210.525 221.379 209.397V129.724C240.613 132.82 258.112 142.638 270.742 157.419C283.372 172.2 290.308 190.978 290.307 210.391Z" fill="#303234"/>
<path d="M288.114 87.5298H264.027C262.931 87.5298 262.042 88.4151 262.042 89.5073V91.9749C262.042 93.0671 262.931 93.9524 264.027 93.9524H288.114C289.21 93.9524 290.099 93.0671 290.099 91.9749V89.5073C290.099 88.4151 289.21 87.5298 288.114 87.5298Z" fill="#FFD34D"/>
<path d="M303.423 100.375H248.718C247.622 100.375 246.733 101.26 246.733 102.353V104.82C246.733 105.912 247.622 106.798 248.718 106.798H303.423C304.519 106.798 305.408 105.912 305.408 104.82V102.353C305.408 101.26 304.519 100.375 303.423 100.375Z" fill="#E6E6E6"/>
<path d="M303.423 113.22H248.718C247.622 113.22 246.733 114.106 246.733 115.198V117.665C246.733 118.758 247.622 119.643 248.718 119.643H303.423C304.519 119.643 305.408 118.758 305.408 117.665V115.198C305.408 114.106 304.519 113.22 303.423 113.22Z" fill="#E6E6E6"/>
<path d="M294.056 202.834C293.742 202.848 293.432 202.766 293.166 202.599C292.901 202.432 292.694 202.187 292.573 201.898C292.451 201.61 292.422 201.291 292.489 200.985C292.556 200.68 292.715 200.402 292.946 200.189L293.051 199.774C293.037 199.741 293.023 199.707 293.009 199.674C292.693 198.93 292.164 198.296 291.487 197.852C290.811 197.407 290.017 197.171 289.207 197.174C288.396 197.177 287.605 197.419 286.932 197.868C286.259 198.318 285.734 198.956 285.423 199.702C284.183 202.679 282.603 205.662 282.214 208.81C282.043 210.201 282.115 211.612 282.428 212.979C279.514 206.645 278.001 199.761 277.991 192.794C277.99 191.046 278.088 189.299 278.283 187.561C278.444 186.137 278.668 184.722 278.954 183.318C280.516 175.7 283.869 168.559 288.739 162.482C291.096 161.201 293.002 159.231 294.2 156.837C294.634 155.976 294.941 155.058 295.111 154.11C294.845 154.144 294.575 154.166 294.309 154.183C294.226 154.188 294.139 154.192 294.056 154.196L294.025 154.198C293.733 154.211 293.443 154.139 293.19 153.992C292.938 153.845 292.734 153.628 292.602 153.368C292.47 153.108 292.417 152.815 292.448 152.525C292.48 152.236 292.594 151.961 292.779 151.735C292.894 151.594 293.008 151.453 293.123 151.313C293.298 151.096 293.476 150.883 293.651 150.666C293.671 150.645 293.69 150.623 293.707 150.601C293.908 150.353 294.108 150.11 294.309 149.862C293.943 149.296 293.451 148.822 292.871 148.477C290.861 147.305 288.089 148.117 286.638 149.928C285.182 151.738 284.908 154.279 285.413 156.541C285.911 158.467 286.733 160.293 287.845 161.944C287.736 162.083 287.623 162.217 287.514 162.356C285.522 164.908 283.786 167.649 282.331 170.538C282.685 167.301 282.262 164.027 281.099 160.984C279.919 158.148 277.708 155.76 275.761 153.309C273.422 150.365 268.626 151.65 268.214 155.382C268.21 155.418 268.206 155.454 268.202 155.49C268.491 155.653 268.774 155.826 269.051 156.008C269.399 156.24 269.669 156.571 269.825 156.958C269.981 157.345 270.016 157.77 269.925 158.177C269.835 158.584 269.623 158.954 269.318 159.239C269.012 159.524 268.627 159.711 268.214 159.775L268.171 159.781C268.275 160.82 268.457 161.849 268.716 162.86C269.469 165.683 270.798 168.32 272.621 170.607C274.445 172.893 276.722 174.78 279.312 176.149C279.482 176.235 279.647 176.322 279.817 176.405C278.355 180.533 277.438 184.834 277.089 189.198C276.891 191.773 276.903 194.36 277.124 196.933L277.111 196.841C276.553 193.98 275.021 191.399 272.774 189.533C269.437 186.801 264.722 185.795 261.121 183.6C260.739 183.355 260.294 183.224 259.839 183.223C259.384 183.222 258.939 183.351 258.555 183.593C258.171 183.836 257.865 184.184 257.673 184.594C257.481 185.005 257.41 185.461 257.47 185.911C257.475 185.943 257.48 185.975 257.485 186.006C258.021 186.224 258.544 186.475 259.049 186.758C259.338 186.92 259.622 187.093 259.899 187.275C260.247 187.507 260.516 187.838 260.672 188.225C260.828 188.612 260.863 189.037 260.773 189.444C260.682 189.851 260.47 190.221 260.165 190.507C259.859 190.792 259.475 190.978 259.061 191.042L259.019 191.048C258.988 191.053 258.962 191.057 258.932 191.061C259.849 193.243 261.136 195.251 262.736 196.998C264.714 199.112 267.104 200.801 269.76 201.963C272.416 203.124 275.282 203.732 278.183 203.751H278.187C278.974 207.16 280.115 210.478 281.591 213.652H293.751C293.795 213.517 293.834 213.378 293.873 213.244C292.747 213.314 291.618 213.247 290.508 213.044C291.411 211.941 292.313 210.829 293.215 209.726C293.235 209.706 293.254 209.684 293.272 209.661C293.729 209.096 294.191 208.536 294.649 207.972L294.649 207.971C294.673 206.241 294.474 204.514 294.056 202.834L294.056 202.834ZM280.131 175.541L280.137 175.532L280.131 175.549V175.541ZM277.437 199.734L277.333 199.499C277.337 199.33 277.337 199.16 277.333 198.987C277.333 198.939 277.324 198.891 277.324 198.843C277.363 199.143 277.398 199.443 277.442 199.742L277.437 199.734Z" fill="#FFD34D"/>
<path d="M321.841 60.8274H230.711C230.514 60.8231 230.327 60.742 230.189 60.6015C230.051 60.4611 229.974 60.2724 229.974 60.0759C229.974 59.8795 230.051 59.6908 230.189 59.5503C230.327 59.4099 230.514 59.3288 230.711 59.3245H321.841C322.039 59.3288 322.226 59.4099 322.364 59.5503C322.502 59.6908 322.579 59.8795 322.579 60.0759C322.579 60.2724 322.502 60.4611 322.364 60.6015C322.226 60.742 322.039 60.8231 321.841 60.8274Z" fill="#CACACA"/>
<path d="M235.573 57.1515C236.798 57.1515 237.79 56.1406 237.79 54.8936C237.79 53.6466 236.798 52.6357 235.573 52.6357C234.349 52.6357 233.357 53.6466 233.357 54.8936C233.357 56.1406 234.349 57.1515 235.573 57.1515Z" fill="#3F3D56"/>
<path d="M243.231 57.1515C244.455 57.1515 245.448 56.1406 245.448 54.8936C245.448 53.6466 244.455 52.6357 243.231 52.6357C242.007 52.6357 241.014 53.6466 241.014 54.8936C241.014 56.1406 242.007 57.1515 243.231 57.1515Z" fill="#3F3D56"/>
<path d="M250.889 57.1515C252.113 57.1515 253.105 56.1406 253.105 54.8936C253.105 53.6466 252.113 52.6357 250.889 52.6357C249.664 52.6357 248.672 53.6466 248.672 54.8936C248.672 56.1406 249.664 57.1515 250.889 57.1515Z" fill="#3F3D56"/>
<path d="M318.279 53.5081H313.319C313.22 53.51 313.127 53.5503 313.058 53.6203C312.989 53.6902 312.951 53.7843 312.951 53.8823C312.951 53.9803 312.989 54.0744 313.058 54.1444C313.127 54.2143 313.22 54.2546 313.319 54.2565H318.279C318.378 54.2546 318.471 54.2143 318.54 54.1444C318.609 54.0744 318.648 53.9803 318.648 53.8823C318.648 53.7843 318.609 53.6902 318.54 53.6203C318.471 53.5503 318.378 53.51 318.279 53.5081Z" fill="#3F3D56"/>
<path d="M318.279 54.9128H313.319C313.22 54.9148 313.127 54.9551 313.058 55.025C312.989 55.095 312.951 55.1891 312.951 55.2871C312.951 55.3851 312.989 55.4792 313.058 55.5492C313.127 55.6191 313.22 55.6594 313.319 55.6613H318.279C318.378 55.6594 318.471 55.6191 318.54 55.5492C318.609 55.4792 318.648 55.3851 318.648 55.2871C318.648 55.1891 318.609 55.095 318.54 55.025C318.471 54.9551 318.378 54.9148 318.279 54.9128Z" fill="#3F3D56"/>
<path d="M318.279 56.3158H313.319C313.22 56.3177 313.127 56.358 313.058 56.428C312.989 56.498 312.951 56.592 312.951 56.69C312.951 56.788 312.989 56.8821 313.058 56.9521C313.127 57.0221 313.22 57.0624 313.319 57.0643H318.279C318.378 57.0624 318.471 57.0221 318.54 56.9521C318.609 56.8821 318.648 56.788 318.648 56.69C318.648 56.592 318.609 56.498 318.54 56.428C318.471 56.358 318.378 56.3177 318.279 56.3158Z" fill="#3F3D56"/>
<path d="M170.421 129.783H117.587C116.839 129.785 116.123 130.081 115.595 130.609C115.067 131.136 114.771 131.851 114.772 132.595V215.757H173.243V132.595C173.244 132.226 173.171 131.86 173.029 131.519C172.887 131.178 172.679 130.868 172.417 130.607C172.155 130.345 171.844 130.138 171.502 129.997C171.159 129.856 170.792 129.783 170.421 129.783ZM144.182 177.035C142.529 177.027 140.947 176.37 139.779 175.206C138.61 174.042 137.951 172.465 137.943 170.819V161.227C137.944 159.579 138.602 157.999 139.772 156.834C140.942 155.67 142.528 155.016 144.182 155.016C145.835 155.016 147.422 155.67 148.591 156.834C149.761 157.999 150.419 159.579 150.421 161.227V170.819C150.413 172.465 149.753 174.042 148.585 175.206C147.416 176.37 145.834 177.027 144.182 177.035Z" fill="#101010"/>
<path d="M114.59 213.097V221.121C114.591 221.536 114.757 221.935 115.052 222.229C115.347 222.523 115.747 222.688 116.165 222.689H171.851C172.267 222.687 172.667 222.521 172.961 222.227C173.256 221.934 173.423 221.536 173.425 221.121V213.097L114.59 213.097Z" fill="#2F2F2F"/>
<path d="M257.911 0H32.0627C30.1223 0.00307579 28.2623 0.772468 26.8902 2.13957C25.5181 3.50667 24.746 5.35998 24.7429 7.29336V159.146C24.7447 161.08 25.5165 162.934 26.8889 164.301C28.2612 165.669 30.1219 166.438 32.0627 166.439H257.911C259.852 166.438 261.713 165.669 263.085 164.301C264.457 162.934 265.229 161.08 265.231 159.146V7.29336C265.228 5.35998 264.456 3.50667 263.084 2.13957C261.712 0.772468 259.852 0.00307459 257.911 0Z" fill="#020202"/>
<path d="M256.026 5.26794H33.9497C32.9107 5.27019 31.9151 5.68297 31.1812 6.41572C30.4473 7.14847 30.0351 8.14136 30.035 9.17655V157.265C30.0368 158.299 30.4498 159.29 31.1836 160.021C31.9173 160.753 32.912 161.164 33.9497 161.166H256.026C257.064 161.164 258.058 160.753 258.792 160.021C259.526 159.29 259.939 158.299 259.941 157.265V9.17655C259.941 8.14136 259.528 7.14847 258.794 6.41572C258.061 5.68297 257.065 5.27019 256.026 5.26794Z" fill="#40464C"/>
<path d="M259.941 9.17655V157.265C259.939 158.299 259.526 159.29 258.792 160.021C258.058 160.753 257.064 161.164 256.026 161.166H177.717C169.054 153.161 161.947 143.633 156.752 133.06C156.41 132.378 156.085 131.689 155.775 130.992C151.042 120.758 148.176 109.766 147.311 98.5309C147.254 97.8417 147.206 97.1524 147.173 96.455C147.067 94.671 147.018 92.8627 147.018 91.0462C147.003 78.9655 149.292 66.992 153.765 55.7634C154.034 55.066 154.319 54.3767 154.612 53.6875C163.613 32.6142 179.879 15.4411 200.472 5.26794H256.026C257.065 5.27019 258.061 5.68297 258.794 6.41572C259.528 7.14847 259.941 8.14136 259.941 9.17655Z" fill="#FFD34D"/>
<path d="M244.863 25.6712H37.0667C36.8506 25.6667 36.6449 25.5779 36.4936 25.424C36.3424 25.2701 36.2578 25.0633 36.2578 24.8479C36.2578 24.6325 36.3424 24.4257 36.4936 24.2718C36.6449 24.1179 36.8506 24.0291 37.0667 24.0245H244.863C245.079 24.0291 245.285 24.1179 245.436 24.2718C245.587 24.4257 245.672 24.6325 245.672 24.8479C245.672 25.0633 245.587 25.2701 245.436 25.424C245.285 25.5779 245.079 25.6667 244.863 25.6712Z" fill="#3F3D56"/>
<path d="M51.2116 19.8206C53.8862 19.8206 56.0544 17.6121 56.0544 14.8878C56.0544 12.1634 53.8862 9.95496 51.2116 9.95496C48.537 9.95496 46.3688 12.1634 46.3688 14.8878C46.3688 17.6121 48.537 19.8206 51.2116 19.8206Z" fill="#3F3D56"/>
<path d="M67.9412 19.8206C70.6158 19.8206 72.7839 17.6121 72.7839 14.8878C72.7839 12.1634 70.6158 9.95496 67.9412 9.95496C65.2666 9.95496 63.0984 12.1634 63.0984 14.8878C63.0984 17.6121 65.2666 19.8206 67.9412 19.8206Z" fill="#F2994A"/>
<path d="M84.6708 19.8206C87.3454 19.8206 89.5136 17.6121 89.5136 14.8878C89.5136 12.1634 87.3454 9.95496 84.6708 9.95496C81.9962 9.95496 79.828 12.1634 79.828 14.8878C79.828 17.6121 81.9962 19.8206 84.6708 19.8206Z" fill="#FFD34D"/>
<path d="M234.79 11.1776H222.906C222.671 11.1823 222.446 11.2788 222.281 11.4464C222.116 11.614 222.024 11.8394 222.024 12.0742C222.024 12.3089 222.116 12.5343 222.281 12.702C222.446 12.8696 222.671 12.9661 222.906 12.9707H234.79C235.026 12.9661 235.25 12.8696 235.415 12.702C235.58 12.5343 235.672 12.3089 235.672 12.0742C235.672 11.8394 235.58 11.614 235.415 11.4464C235.25 11.2788 235.026 11.1823 234.79 11.1776Z" fill="#3F3D56"/>
<path d="M234.79 14.5431H222.906C222.671 14.5477 222.446 14.6442 222.281 14.8119C222.116 14.9795 222.024 15.2049 222.024 15.4397C222.024 15.6744 222.116 15.8998 222.281 16.0674C222.446 16.2351 222.671 16.3316 222.906 16.3362H234.79C235.026 16.3316 235.25 16.2351 235.415 16.0674C235.58 15.8998 235.672 15.6744 235.672 15.4397C235.672 15.2049 235.58 14.9795 235.415 14.8119C235.25 14.6442 235.026 14.5477 234.79 14.5431Z" fill="#3F3D56"/>
<path d="M234.79 17.9041H222.906C222.671 17.9087 222.446 18.0052 222.281 18.1728C222.116 18.3405 222.024 18.5659 222.024 18.8006C222.024 19.0354 222.116 19.2608 222.281 19.4284C222.446 19.596 222.671 19.6925 222.906 19.6972H234.79C235.026 19.6925 235.25 19.596 235.415 19.4284C235.58 19.2608 235.672 19.0354 235.672 18.8006C235.672 18.5659 235.58 18.3405 235.415 18.1728C235.25 18.0052 235.026 17.9087 234.79 17.9041Z" fill="#3F3D56"/>
<path d="M100.691 73.7728H71.6327C70.5366 73.7728 69.6481 74.6582 69.6481 75.7503V78.8324C69.6481 79.9245 70.5366 80.8099 71.6327 80.8099H100.691C101.787 80.8099 102.676 79.9245 102.676 78.8324V75.7503C102.676 74.6582 101.787 73.7728 100.691 73.7728Z" fill="#FFD34D"/>
<path d="M117.465 87.8469H54.8591C53.763 87.8469 52.8744 88.7323 52.8744 89.8244V92.9065C52.8744 93.9986 53.763 94.884 54.8591 94.884H117.465C118.561 94.884 119.45 93.9986 119.45 92.9065V89.8244C119.45 88.7323 118.561 87.8469 117.465 87.8469Z" fill="#E6E6E6"/>
<path d="M117.465 101.921H54.8591C53.763 101.921 52.8744 102.806 52.8744 103.899V106.981C52.8744 108.073 53.763 108.958 54.8591 108.958H117.465C118.561 108.958 119.45 108.073 119.45 106.981V103.899C119.45 102.806 118.561 101.921 117.465 101.921Z" fill="#E6E6E6"/>
<path d="M58.3083 152.676C58.3132 155.574 57.795 158.45 56.7783 161.166H33.9497C32.912 161.164 31.9173 160.752 31.1836 160.021C30.4498 159.29 30.0368 158.299 30.035 157.265V128.656C31.3106 128.451 32.6006 128.348 33.8927 128.348C37.0991 128.348 40.2741 128.977 43.2364 130.2C46.1987 131.422 48.8904 133.214 51.1576 135.473C53.4248 137.732 55.2233 140.414 56.4502 143.366C57.6772 146.317 58.3085 149.481 58.3083 152.676Z" fill="#FFD34D"/>
<path opacity="0.2" d="M260.144 55.7634V53.6874H225.222V29.6277H223.146V53.6874H183.121V29.6277H181.046V53.6874H154.612C154.319 54.3767 154.034 55.066 153.765 55.7634H181.046V96.455H147.173C147.206 97.1523 147.254 97.8417 147.311 98.5309H181.046V130.992H155.775C156.085 131.689 156.41 132.378 156.752 133.06H181.046V160.347H183.121V133.06H223.146V160.347H225.222V133.06H260.144V130.992H225.222V130.992C225.222 126.729 226.064 122.508 227.702 118.569C229.339 114.631 231.739 111.053 234.764 108.038C237.789 105.024 241.38 102.633 245.333 101.002C249.286 99.3705 253.522 98.5309 257.8 98.5309H260.144V96.4549H225.222V55.7634H260.144ZM223.146 130.992H183.121V98.5309H223.146V130.992ZM223.146 96.4549H183.121V95.644C183.121 85.067 187.338 74.9232 194.844 67.4441C202.35 59.9651 212.531 55.7634 223.146 55.7634H223.146V96.4549Z" fill="black"/>
<path d="M232.026 145.802C231.581 145.822 231.14 145.706 230.763 145.468C230.386 145.231 230.092 144.883 229.92 144.473C229.748 144.063 229.706 143.611 229.801 143.177C229.896 142.742 230.123 142.348 230.45 142.046C230.505 141.829 230.544 141.673 230.599 141.456C230.579 141.409 230.56 141.361 230.54 141.314C228.538 136.557 221.752 136.59 219.767 141.354C218.005 145.582 215.761 149.818 215.209 154.289C214.965 156.265 215.068 158.268 215.512 160.21C211.374 151.215 209.225 141.438 209.211 131.543C209.21 129.06 209.348 126.579 209.625 124.111C209.854 122.088 210.172 120.08 210.579 118.085C212.797 107.265 217.559 97.1238 224.475 88.4937C227.822 86.674 230.529 83.8757 232.231 80.4759C232.848 79.2538 233.283 77.9492 233.525 76.6027C233.147 76.652 232.763 76.6828 232.386 76.7075C232.268 76.7136 232.144 76.7198 232.027 76.726L231.982 76.728C231.567 76.7465 231.156 76.6452 230.797 76.4361C230.439 76.2271 230.149 75.9192 229.962 75.5496C229.775 75.18 229.699 74.7645 229.743 74.3529C229.788 73.9414 229.951 73.5515 230.213 73.2302C230.376 73.0303 230.539 72.8304 230.702 72.6307C230.95 72.3224 231.203 72.0201 231.451 71.7118C231.48 71.6825 231.506 71.6516 231.531 71.6192C231.816 71.2677 232.101 70.9223 232.386 70.5708C231.866 69.767 231.167 69.0937 230.343 68.6034C227.489 66.9381 223.553 68.0914 221.491 70.6633C219.424 73.2351 219.034 76.8432 219.752 80.0565C220.365 82.8072 221.702 85.3297 223.206 87.7288C223.051 87.9262 222.89 88.1174 222.736 88.3148C219.907 91.9391 217.441 95.831 215.374 99.9345C215.877 95.3374 215.277 90.687 213.624 86.3659C211.949 82.3388 208.808 78.9471 206.043 75.4657C202.721 71.284 195.91 73.109 195.325 78.41C195.319 78.4613 195.314 78.5126 195.308 78.5639C195.719 78.7948 196.121 79.0399 196.514 79.2991C197.009 79.6281 197.392 80.0982 197.613 80.6477C197.835 81.1973 197.884 81.8007 197.756 82.3789C197.627 82.9571 197.326 83.4832 196.893 83.8881C196.459 84.293 195.912 84.5579 195.325 84.6482L195.265 84.6574C195.411 86.1325 195.67 87.5943 196.039 89.0302C197.107 93.039 198.995 96.7846 201.585 100.032C204.174 103.28 207.409 105.959 211.086 107.903C211.328 108.026 211.563 108.15 211.804 108.267C209.728 114.13 208.425 120.238 207.929 126.436C207.649 130.093 207.665 133.767 207.979 137.421L207.96 137.291C207.168 133.228 204.993 129.561 201.801 126.911C197.062 123.032 190.365 121.603 185.252 118.485C182.791 116.984 179.637 118.924 180.066 121.767C180.073 121.812 180.08 121.858 180.087 121.903C180.849 122.213 181.592 122.569 182.309 122.97C182.72 123.201 183.122 123.446 183.516 123.705C184.01 124.034 184.393 124.504 184.614 125.054C184.836 125.604 184.885 126.207 184.757 126.785C184.628 127.363 184.327 127.889 183.894 128.294C183.46 128.699 182.914 128.964 182.326 129.054L182.266 129.064C182.223 129.07 182.185 129.076 182.142 129.082C183.445 132.181 185.273 135.033 187.546 137.513C190.354 140.516 193.749 142.915 197.521 144.565C201.293 146.214 205.364 147.078 209.483 147.104H209.489C210.607 151.945 212.228 156.658 214.324 161.166H231.593C231.655 160.975 231.711 160.777 231.767 160.586C230.168 160.686 228.563 160.591 226.988 160.302C228.269 158.736 229.551 157.157 230.832 155.59C230.861 155.561 230.887 155.53 230.912 155.498C231.562 154.696 232.219 153.9 232.868 153.099L232.869 153.098C232.904 150.64 232.62 148.188 232.027 145.802L232.026 145.802ZM212.25 107.039L212.259 107.027L212.25 107.052V107.039ZM208.425 141.399L208.276 141.066C208.282 140.825 208.282 140.585 208.276 140.338C208.276 140.27 208.264 140.202 208.264 140.134C208.319 140.56 208.369 140.986 208.431 141.411L208.425 141.399Z" fill="#2F2E41"/>
<path d="M78.2443 105.557V82.431C78.2443 78.8811 76.829 75.4766 74.3097 72.9665C71.7904 70.4563 68.3736 69.0461 64.8108 69.0461H15.6366C12.0739 69.0461 8.65702 70.4563 6.13775 72.9665C3.61849 75.4766 2.20319 78.8812 2.20319 82.4311V209.304C2.20319 212.854 3.61849 216.259 6.13775 218.769C8.65702 221.279 12.0739 222.689 15.6366 222.689H64.8108C66.5749 222.689 68.3218 222.343 69.9516 221.67C71.5814 220.998 73.0623 220.012 74.3097 218.769C75.5571 217.526 76.5466 216.05 77.2217 214.426C77.8968 212.802 78.2443 211.062 78.2443 209.304V122.019C78.469 122.019 78.6845 121.93 78.8434 121.772C79.0023 121.614 79.0915 121.399 79.0915 121.175V106.402C79.0915 106.178 79.0023 105.963 78.8434 105.805C78.6845 105.646 78.469 105.557 78.2443 105.557Z" fill="#0A0A0B"/>
<path d="M75.3853 82.523V209.213C75.3856 211.844 74.3438 214.37 72.4862 216.24C70.6285 218.111 68.1051 219.175 65.4642 219.203C65.4277 219.207 65.3911 219.208 65.3544 219.207H15.9409C13.2806 219.207 10.7294 218.154 8.84828 216.28C6.96718 214.406 5.91028 211.863 5.91003 209.213V82.523C5.91028 79.8723 6.96718 77.3303 8.84828 75.4559C10.7294 73.5816 13.2806 72.5286 15.9409 72.5283H21.9375C21.6427 73.2496 21.5304 74.0321 21.6103 74.8068C21.6903 75.5816 21.9602 76.3248 22.3961 76.9713C22.8321 77.6177 23.4209 78.1474 24.1106 78.5139C24.8003 78.8804 25.5698 79.0724 26.3515 79.0729H54.523C55.304 79.0708 56.0725 78.8777 56.7611 78.5107C57.4498 78.1437 58.0375 77.6139 58.4728 76.9679C58.9081 76.3218 59.1776 75.5792 59.2577 74.8051C59.3379 74.0311 59.2262 73.2493 58.9324 72.5283H65.3544C68.0147 72.5286 70.566 73.5816 72.4471 75.4559C74.3282 77.3302 75.3851 79.8723 75.3853 82.523Z" fill="#40464C"/>
<path d="M65.5877 215.297C65.5877 216.61 65.5465 217.912 65.4642 219.203C65.4277 219.207 65.3911 219.208 65.3544 219.208H15.9409C13.2806 219.207 10.7294 218.154 8.84828 216.28C6.96718 214.406 5.91028 211.864 5.91003 209.213V152.754C22.0098 153.563 37.1819 160.506 48.2892 172.146C59.3965 183.787 65.5896 199.235 65.5877 215.297Z" fill="#303234"/>
<path d="M2.47493 118.495C2.17177 118.495 1.88111 118.375 1.66674 118.161C1.45237 117.948 1.33178 117.658 1.33142 117.356V109.608C1.33142 109.306 1.4519 109.016 1.66635 108.802C1.8808 108.589 2.17166 108.469 2.47493 108.469C2.77821 108.469 3.06907 108.589 3.28352 108.802C3.49797 109.016 3.61845 109.306 3.61845 109.608V117.356C3.61809 117.658 3.4975 117.948 3.28313 118.161C3.06875 118.375 2.7781 118.495 2.47493 118.495Z" fill="#E6E6E6"/>
<path d="M46.7149 112.309H34.5805C33.4844 112.309 32.5958 113.194 32.5958 114.286V117.369C32.5958 118.461 33.4844 119.346 34.5805 119.346H46.7149C47.811 119.346 48.6996 118.461 48.6996 117.369V114.286C48.6996 113.194 47.811 112.309 46.7149 112.309Z" fill="#FFD34D"/>
<path d="M63.4886 126.383H17.8068C16.7107 126.383 15.8221 127.268 15.8221 128.361V131.443C15.8221 132.535 16.7107 133.42 17.8068 133.42H63.4886C64.5847 133.42 65.4733 132.535 65.4733 131.443V128.361C65.4733 127.268 64.5847 126.383 63.4886 126.383Z" fill="#E6E6E6"/>
<path d="M63.4886 140.457H17.8068C16.7107 140.457 15.8221 141.343 15.8221 142.435V145.517C15.8221 146.609 16.7107 147.494 17.8068 147.494H63.4886C64.5847 147.494 65.4733 146.609 65.4733 145.517V142.435C65.4733 141.343 64.5847 140.457 63.4886 140.457Z" fill="#E6E6E6"/>
<path d="M52.4969 211.998C52.2879 212.007 52.0809 211.953 51.9041 211.841C51.7273 211.73 51.5892 211.567 51.5085 211.374C51.4277 211.182 51.4083 210.969 51.4528 210.766C51.4973 210.562 51.6036 210.377 51.7573 210.235L51.8272 209.958C51.818 209.936 51.8087 209.914 51.7994 209.892C51.5888 209.396 51.2359 208.974 50.7851 208.677C50.3342 208.381 49.8055 208.224 49.2654 208.226C48.7252 208.228 48.1977 208.389 47.7491 208.688C47.3004 208.988 46.9507 209.413 46.7438 209.91C45.917 211.895 44.8643 213.882 44.605 215.98C44.4909 216.908 44.539 217.848 44.7474 218.759C42.8053 214.538 41.7969 209.95 41.7904 205.307C41.79 204.141 41.8549 202.977 41.985 201.819C42.0925 200.87 42.2416 199.927 42.4323 198.991C43.4732 193.914 45.7081 189.155 48.9534 185.105C50.5241 184.251 51.7944 182.938 52.593 181.342C52.8823 180.769 53.0868 180.157 53.2001 179.525C53.0229 179.548 52.8428 179.562 52.6656 179.574C52.6104 179.577 52.5524 179.58 52.4972 179.583L52.4763 179.584C52.2816 179.592 52.0885 179.545 51.9203 179.447C51.752 179.349 51.6158 179.204 51.5281 179.031C51.4403 178.857 51.4048 178.662 51.4257 178.469C51.4466 178.276 51.5231 178.093 51.6459 177.942C51.7224 177.848 51.7989 177.755 51.8755 177.661C51.9917 177.516 52.1108 177.374 52.227 177.23C52.2404 177.216 52.253 177.201 52.2648 177.186C52.3984 177.021 52.532 176.859 52.6656 176.694C52.4217 176.317 52.0937 176.001 51.7071 175.771C50.368 174.99 48.5206 175.531 47.5533 176.738C46.5832 177.945 46.4002 179.638 46.7371 181.146C47.0684 182.429 47.6166 183.646 48.3579 184.746C48.2853 184.839 48.2098 184.928 48.1372 185.021C46.8097 186.722 45.6527 188.548 44.6828 190.474C44.9187 188.316 44.6372 186.134 43.8614 184.106C43.0752 182.217 41.6016 180.625 40.3039 178.991C39.9607 178.552 39.4945 178.225 38.9645 178.05C38.4344 177.875 37.8642 177.86 37.3259 178.008C36.7876 178.156 36.3053 178.46 35.9401 178.881C35.5749 179.302 35.3432 179.821 35.2741 180.373C35.2715 180.397 35.2689 180.421 35.2664 180.445C35.4591 180.554 35.6478 180.669 35.8324 180.79C36.0643 180.945 36.244 181.165 36.348 181.423C36.4519 181.681 36.4752 181.964 36.4149 182.235C36.3546 182.507 36.2134 182.754 36.0099 182.944C35.8063 183.134 35.5499 183.258 35.2743 183.3L35.246 183.305C35.3147 183.997 35.4361 184.683 35.6091 185.357C36.1105 187.238 36.9966 188.996 38.2117 190.52C39.4268 192.044 40.9448 193.301 42.6705 194.213C42.7838 194.271 42.8942 194.329 43.0075 194.384C42.033 197.135 41.4217 200.001 41.1891 202.91C41.0574 204.626 41.0652 206.35 41.2123 208.065L41.2036 208.004C40.8318 206.097 39.8109 204.377 38.3134 203.133C36.0892 201.312 32.9469 200.642 30.5474 199.179C30.2924 199.016 29.9959 198.929 29.6929 198.928C29.3898 198.927 29.0929 199.013 28.8371 199.175C28.5813 199.337 28.3773 199.568 28.2491 199.842C28.121 200.115 28.0741 200.42 28.1139 200.719L28.1237 200.783C28.4814 200.928 28.8296 201.095 29.1665 201.284C29.3592 201.392 29.5479 201.507 29.7325 201.629C29.9644 201.783 30.1441 202.004 30.2481 202.261C30.352 202.519 30.3753 202.803 30.315 203.074C30.2547 203.345 30.1135 203.592 29.91 203.782C29.7064 203.972 29.45 204.096 29.1744 204.139L29.1461 204.143C29.1258 204.146 29.1083 204.149 29.088 204.152C29.6992 205.606 30.557 206.944 31.6238 208.108C32.9417 209.517 34.5346 210.643 36.3048 211.417C38.075 212.191 39.9851 212.596 41.9182 212.609H41.9211C42.4458 214.881 43.2061 217.092 44.1897 219.207H52.2938C52.3229 219.118 52.349 219.025 52.3752 218.935C51.625 218.982 50.8719 218.938 50.1327 218.802C50.734 218.067 51.3352 217.326 51.9365 216.591C51.9499 216.577 51.9626 216.563 51.9743 216.548C52.2793 216.171 52.5872 215.798 52.8922 215.422L52.8924 215.421C52.9086 214.268 52.7758 213.117 52.4971 211.998L52.4969 211.998ZM43.2166 193.808L43.2208 193.802L43.2166 193.814V193.808ZM41.4215 209.931L41.3517 209.775C41.3547 209.662 41.3547 209.549 41.3517 209.434C41.3517 209.402 41.346 209.37 41.346 209.338C41.3721 209.538 41.3953 209.738 41.4244 209.937L41.4215 209.931Z" fill="#FFD34D"/>
<path d="M2.24624 103.455C1.94307 103.455 1.65242 103.335 1.43804 103.121C1.22367 102.908 1.10308 102.618 1.10272 102.316V94.5683C1.10272 94.2662 1.2232 93.9763 1.43765 93.7627C1.6521 93.549 1.94296 93.429 2.24624 93.429C2.54952 93.429 2.84037 93.549 3.05482 93.7627C3.26927 93.9763 3.38975 94.2662 3.38975 94.5683V102.316C3.3894 102.618 3.26881 102.908 3.05443 103.121C2.84006 103.335 2.54941 103.455 2.24624 103.455Z" fill="#E6E6E6"/>
<path d="M32.6636 73.8316C32.664 73.5296 32.7846 73.24 32.999 73.0264C33.2133 72.8128 33.504 72.6926 33.8071 72.6923H41.583C41.8863 72.6923 42.1772 72.8123 42.3916 73.026C42.6061 73.2397 42.7266 73.5295 42.7266 73.8316C42.7266 74.1338 42.6061 74.4236 42.3916 74.6373C42.1772 74.851 41.8863 74.971 41.583 74.971H33.8071C33.504 74.9707 33.2133 74.8505 32.999 74.6369C32.7846 74.4233 32.664 74.1337 32.6636 73.8316Z" fill="white"/>
<path d="M2.47493 131.712C2.17177 131.712 1.88111 131.592 1.66674 131.378C1.45237 131.164 1.33178 130.875 1.33142 130.573V122.825C1.33142 122.523 1.4519 122.233 1.66635 122.019C1.8808 121.806 2.17166 121.686 2.47493 121.686C2.77821 121.686 3.06907 121.806 3.28352 122.019C3.49797 122.233 3.61845 122.523 3.61845 122.825V130.573C3.61809 130.875 3.4975 131.164 3.28313 131.378C3.06875 131.592 2.7781 131.712 2.47493 131.712Z" fill="#E6E6E6"/>
<path d="M45.9284 74.971C46.56 74.971 47.0719 74.4609 47.0719 73.8316C47.0719 73.2024 46.56 72.6923 45.9284 72.6923C45.2969 72.6923 44.7849 73.2024 44.7849 73.8316C44.7849 74.4609 45.2969 74.971 45.9284 74.971Z" fill="white"/>
</svg>
